<?xml version="1.0" standalone="no"?>
<!DOCTYPE svg PUBLIC "-//W3C//DTD SVG 1.1//EN" "http://www.w3.org/Graphics/SVG/1.1/DTD/svg11.dtd" >
<svg xmlns="http://www.w3.org/2000/svg">
<metadata>
This is a custom SVG webfont generated by Font Squirrel.
Copyright   : c 2000 Nick Curtis All Rights Reserved Generated by Fontographer 352 
</metadata>
<defs>
<font id="webfontTAKG0Wbw" horiz-adv-x="1024" >
<font-face units-per-em="2048" ascent="1638" descent="-410" />
<missing-glyph horiz-adv-x="409" />
<glyph unicode=" "  horiz-adv-x="409" />
<glyph unicode="&#x09;" horiz-adv-x="409" />
<glyph unicode="&#xa0;" horiz-adv-x="409" />
<glyph unicode="!" horiz-adv-x="421" d="M8 170q0 80 56.5 137.5t136.5 57.5t137 -57.5t57 -137.5t-57 -135t-137 -55t-136.5 55t-56.5 135zM10 1161q0 102 55.5 173t133.5 71t133 -70.5t55 -173.5q0 -12 -1 -24.5t-1 -22.5q-10 -106 -54 -226t-95 -310q-6 -29 -14.5 -57.5t-14.5 -59.5h-17q-6 31 -14 59.5 t-14 57.5q-51 190 -95 310t-55 226q0 10 -1 22.5t-1 24.5z" />
<glyph unicode="&#x22;" horiz-adv-x="843" d="M51 1321q0 80 54.5 135t127.5 55q74 0 120 -47t61 -114q4 -12 6 -24l4 -23q0 -12 1 -23.5t1 -24.5v-16q0 -8 -2 -16q-10 -125 -100.5 -231.5t-257.5 -127.5q2 10 3 19.5t3 17.5q92 59 137 118.5t59 117.5q-8 -2 -16 -3t-19 -1q-74 0 -128 55t-54 133zM440 1321 q0 80 54.5 135t128.5 55t119.5 -47t60.5 -114q4 -12 6 -24l4 -23q0 -12 1 -23.5t1 -24.5v-16q0 -8 -2 -16q-10 -125 -100 -231.5t-258 -127.5q2 10 3 19.5t3 17.5q92 59 137 118.5t59 117.5q-8 -2 -16 -3t-18 -1q-74 0 -128.5 55t-54.5 133z" />
<glyph unicode="#" horiz-adv-x="866" d="M-33 543l49 137h49h158l29 115h-221l53 137h32h70h69h32l110 436h144l-111 -436h109l110 436h144l-109 -436h211l-33 -137h-213l-31 -115h232l-31 -137h-231l-146 -543h-143l143 543h-108l-144 -543h-143l143 543h-34h-78h-77h-34zM367 680h77h31l29 115h-107z" />
<glyph unicode="$" horiz-adv-x="1404" d="M0 924q0 184 135 310t361 126h32h31v176h223v-207q61 -14 113.5 -34.5t93.5 -47.5l217 105v-518q-53 61 -112.5 107t-118.5 79q-168 94 -315.5 109.5t-194.5 15.5h-6h-4q-68 0 -116 -27.5t-48 -68.5q0 -27 22.5 -47.5t57.5 -34.5l82 -13l180 -26l168 -25.5t90 -13.5 q219 -31 344 -141.5t129 -292.5q6 -186 -142.5 -319.5t-412.5 -133.5h-6q-4 0 -6 2h-7h-8v-250h-223v279l-19.5 4l-19.5 4q-68 18 -133 43t-125 57l-217 -131v633q61 -133 161.5 -214t209.5 -126q147 -57 273 -67.5t157 -10.5h1q73 0 130 32t53 71q0 4 -1 7t-1 5 q-6 23 -32.5 43t-65.5 27q-29 4 -56.5 7t-56.5 5l-222 29q-112 14 -224 38q-160 35 -265.5 142t-105.5 293z" />
<glyph unicode="%" />
<glyph unicode="&#x26;" horiz-adv-x="1882" d="M-2 424q0 166 148.5 293t373.5 166q-4 10 -7 21t-5 22q-14 49 -20.5 97t-6.5 83q0 133 112 228.5t261 95.5q158 0 255 -95.5t97 -228.5q0 -96 -59.5 -175t-155.5 -118q25 -43 74 -98.5t113 -114.5l46 -42l48 -42l63 166l-161 244h665l-258 -240q-23 -80 -53 -157 l-64 -154q47 -29 87 -47.5t65 -16.5q43 0 75.5 51.5t32.5 122.5q0 25 -4 47.5t-12 42.5q59 -39 95 -108.5t36 -169.5q0 -141 -92 -240.5t-221 -99.5q-31 0 -62.5 3t-64.5 9q-57 12 -112.5 35t-98.5 57q-84 -53 -214 -81.5t-317 -28.5q-285 0 -472 127t-187 346zM506 526 q0 -16 3 -33.5t7 -35.5q31 -106 110 -181t181 -75q47 0 84 10t63 31l-190 230q-90 114 -162 220q-45 -23 -70.5 -66t-25.5 -100zM795 1114q0 -25 7 -46t21 -44q10 -18 24.5 -35.5t29.5 -38.5q51 35 77.5 77t26.5 87q0 43 -26.5 75t-67.5 32q-39 0 -65.5 -32t-26.5 -75z" />
<glyph unicode="'" horiz-adv-x="466" d="M51 1321q0 80 54.5 135t127.5 55q74 0 120 -47t61 -114q4 -12 6 -24l4 -23q0 -12 1 -23.5t1 -24.5v-16q0 -8 -2 -16q-10 -125 -100.5 -231.5t-257.5 -127.5q2 10 3 19.5t3 17.5q92 59 137 118.5t59 117.5q-8 -2 -16 -3t-19 -1q-74 0 -128 55t-54 133z" />
<glyph unicode="(" horiz-adv-x="909" d="M4 571q0 326 256 568.5t633 281.5v-32q-207 -106 -338 -326.5t-131 -491.5q0 -272 131 -490t338 -325v-37q-377 43 -633 283.5t-256 568.5z" />
<glyph unicode=")" horiz-adv-x="942" d="M4 -246q207 109 338 327t131 490q0 270 -131 490.5t-338 327.5v32q377 -39 633 -281.5t256 -568.5q0 -328 -256 -568.5t-633 -281.5v-2v35z" />
<glyph unicode="*" horiz-adv-x="811" d="M37 1128l254 39l115 230l114 -230l254 -39l-182 -180l43 -254l-229 119l-228 -119l41 254z" />
<glyph unicode="+" />
<glyph unicode="," horiz-adv-x="466" d="M20 170q0 90 61.5 153.5t145.5 63.5t137.5 -53t67.5 -131q6 -27 9 -52.5t3 -54.5v-11v-9q-6 -145 -108.5 -272.5t-298.5 -151.5q2 10 3 21.5t3 21.5q104 68 155.5 134.5t67.5 131.5q-8 -2 -18 -3t-21 -1q-84 0 -145.5 62.5t-61.5 150.5z" />
<glyph unicode="-" horiz-adv-x="667" d="M31 313v326h608v-326h-608z" />
<glyph unicode="." horiz-adv-x="421" d="M8 170q0 80 56.5 137.5t136.5 57.5t137 -57.5t57 -137.5t-57 -135t-137 -55t-136.5 55t-56.5 135z" />
<glyph unicode="/" horiz-adv-x="866" d="M-53 -211l762 1641h163l-763 -1641h-162z" />
<glyph unicode="0" horiz-adv-x="1646" d="M8 678q0 303 243 519t558 216t557 -216t242 -519t-244 -518t-555 -215q-315 0 -558 215t-243 518zM530 676q0 -193 68 -334t211 -137q141 4 208.5 141t67.5 330q0 195 -76.5 333t-199.5 138t-201 -138t-78 -333z" />
<glyph unicode="1" horiz-adv-x="1249" d="M-2 0l401 319v756l-401 291h858v-1057l358 -309h-1216z" />
<glyph unicode="2" horiz-adv-x="1505" d="M-4 0q4 27 50 104.5t120 165.5q47 57 102.5 112.5t112.5 96.5q10 8 21 16l22 13l385 254q57 45 93 103.5t36 119.5q0 90 -54.5 148.5t-199.5 58.5q-104 0 -179 -63.5t-75 -153.5q0 -25 1 -53.5t7 -57.5q6 -35 20.5 -67.5t43.5 -59.5q-4 -14 -44 -25.5t-96 -11.5 q-23 0 -48 2.5t-50 8.5q-92 18 -168 83.5t-76 200.5q0 172 213 295t512 123q301 0 514.5 -123t213.5 -295q0 -102 -81 -189t-216 -147l-568 -274q-41 -20 -83 -45l-81 -49l-17 -12.5t-19 -12.5h745l295 385v-651h-1452z" />
<glyph unicode="3" horiz-adv-x="1503" d="M0 334q0 104 93 169.5t229 65.5q27 0 54 -3t56 -9q-14 -16 -23.5 -43t-11.5 -55q-2 -14 -3 -29.5t-1 -28.5q0 -84 64.5 -143t212.5 -59q127 0 201.5 50t74.5 142q0 131 -82 166t-295 37v203h9h8q190 2 262 26.5t72 165.5q0 88 -71 140.5t-177 52.5q-137 0 -195.5 -56.5 t-62.5 -136.5q-2 -37 7 -69.5t30 -59.5q-27 -6 -53.5 -8t-51.5 -2q-125 0 -212 57.5t-87 145.5q0 162 198.5 261t477.5 99q311 0 492.5 -130t181.5 -292q0 -106 -88 -183t-234 -120q168 -41 271.5 -123t103.5 -196q0 -170 -195.5 -292t-529.5 -122q-299 0 -512 104.5 t-213 274.5z" />
<glyph unicode="4" horiz-adv-x="1665" d="M0 381v266l866 715h426v-752h334l-113 -229h-221v-70l361 -311h-1227l412 315v66h-838zM338 610h500v437z" />
<glyph unicode="5" horiz-adv-x="1515" d="M6 369q4 111 89 161t190 50q8 0 16 -1t18 -1q25 -2 50.5 -7.5t48.5 -11.5q-14 -27 -22.5 -56.5t-8.5 -62.5q0 -109 72.5 -172t220.5 -63q117 0 199 78.5t82 189.5q0 141 -82 203.5t-199 62.5q-88 0 -155.5 -28.5t-131.5 -73.5l-13 -9l-13 -10l-252 148l82 600h1179 l-139 -281h-821l-49 -225q84 55 193.5 87t240.5 32q293 0 481 -152.5t188 -365.5q0 -211 -228 -361.5t-501 -154.5h-7h-5q-279 0 -503 104.5t-220 319.5z" />
<glyph unicode="6" horiz-adv-x="1605" d="M6 647q0 303 245 534.5t589 231.5q156 -2 286.5 -42t231.5 -107q35 -25 62.5 -69t31.5 -93q2 -6 2 -11v-10q-2 -57 -49 -102t-168 -45q-45 0 -103.5 8t-129.5 27q-2 0 -5.5 1t-5.5 1q-4 0 -6 1t-6 1q12 20 17.5 39.5t5.5 36.5q0 66 -61.5 104.5t-137.5 38.5 q-152 0 -217.5 -118t-71.5 -257v-15v-14q0 -18 1 -36.5t3 -36.5q76 72 185.5 114.5t240.5 42.5q246 0 435.5 -131t189.5 -323q0 -172 -139.5 -276.5t-307.5 -149.5q-84 -25 -163.5 -36t-143.5 -11q-334 0 -572.5 199.5t-238.5 502.5zM530 418q0 -96 78 -166t189 -70 q109 0 186.5 70t77.5 166q0 98 -78 167.5t-186 69.5q-111 0 -189 -69.5t-78 -167.5z" />
<glyph unicode="7" horiz-adv-x="1316" d="M0 690v678h1284v-117q-143 -182 -236.5 -372.5t-129.5 -382.5q-12 -63 -18.5 -128t-6.5 -128q0 -59 5 -120t17 -120h-530q29 309 170 573.5t377 511.5h-578z" />
<glyph unicode="8" horiz-adv-x="1595" d="M6 297q0 98 64.5 159.5t162.5 94.5q-98 59 -158.5 157.5t-60.5 217.5q0 233 179.5 340.5t396.5 134.5q47 6 94 9t92 3q276 0 473 -101.5t197 -242.5q0 -90 -57.5 -147.5t-155.5 -104.5q145 -51 236.5 -156.5t91.5 -234.5q0 -188 -150.5 -293.5t-331.5 -146.5 q-86 -23 -169 -32t-148 -9q-303 0 -529.5 103.5t-226.5 248.5zM346 406q-8 -100 81 -173t280 -73q152 -2 236.5 18.5t127.5 52.5h-2q20 16 31.5 34t11.5 38q0 49 -58.5 80t-148.5 39q-39 4 -85 7t-97 5q-14 0 -27.5 1t-27.5 3q-86 6 -165 15.5t-130 27.5 q-10 -18 -16.5 -36.5t-10.5 -38.5zM393 1032q0 -39 38 -73.5t118 -45.5q49 -6 96 -9t94 -7q16 0 31.5 -1t32.5 -3q59 -4 119.5 -9t121.5 -16q12 16 20.5 37t14.5 43q4 20 6 41t2 37q0 78 -80.5 109.5t-177.5 40.5q-49 6 -96 6h-84h-13h-13q-104 2 -164 -42t-66 -98v-5v-5z " />
<glyph unicode="9" horiz-adv-x="1605" d="M0 938q0 172 139.5 275.5t304.5 152.5q84 25 164 36t144 11q336 0 574.5 -199.5t238.5 -504.5q0 -303 -245 -533.5t-589 -230.5q-156 2 -287 40t-233 107q-33 23 -58.5 65t-33.5 89q0 6 -1 13t-1 13q0 59 48 104.5t169 45.5q47 0 105.5 -8t127.5 -27q4 -2 10.5 -3 t12.5 -1q-12 -20 -17.5 -39.5t-5.5 -36.5q0 -66 61.5 -104.5t137.5 -38.5q154 0 218.5 119.5t68.5 263.5v8v8v20q0 9 -2 19q0 10 -1 19.5t-1 19.5q-76 -72 -183.5 -115t-240.5 -43q-246 0 -435.5 131t-189.5 324zM510 938q0 -98 78 -168t186 -70q111 0 188.5 70t77.5 168 q0 96 -77.5 166t-188.5 70q-109 0 -186.5 -70t-77.5 -166z" />
<glyph unicode=":" horiz-adv-x="421" d="M8 170q0 80 56.5 137.5t136.5 57.5t137 -57.5t57 -137.5t-57 -135t-137 -55t-136.5 55t-56.5 135zM8 662q0 80 56.5 137t136.5 57t137 -57.5t57 -137t-57 -136t-137 -56.5t-136.5 56.5t-56.5 136.5z" />
<glyph unicode=";" horiz-adv-x="421" d="M8 662q0 80 56.5 137t136.5 57t137 -57.5t57 -137t-57 -136t-137 -56.5t-136.5 56.5t-56.5 136.5zM20 170q0 90 61.5 153.5t145.5 63.5t137.5 -53t67.5 -131q6 -27 9 -52.5t3 -54.5v-11v-9q-6 -145 -108.5 -272.5t-298.5 -151.5q2 10 3 21.5t3 21.5q104 68 155.5 134.5 t67.5 131.5q-8 -2 -18 -3t-21 -1q-84 0 -145.5 62.5t-61.5 150.5z" />
<glyph unicode="&#x3c;" />
<glyph unicode="=" />
<glyph unicode="&#x3e;" />
<glyph unicode="?" horiz-adv-x="1017" d="M-2 1024q0 176 138 277.5t341 101.5t352.5 -125t149.5 -285q0 -109 -67.5 -191.5t-182.5 -115.5q-113 -33 -142.5 -81t-31.5 -126h-63v9q0 5 -3 10q-4 96 11.5 188t56.5 160q16 29 29.5 61.5t17.5 67.5q2 6 2 11v11q0 88 -32.5 141.5t-116.5 53.5q-68 0 -106 -57.5 t-40 -137.5q0 -55 13.5 -100t35.5 -74q-14 -4 -30.5 -8t-32.5 -6q-16 -4 -31.5 -5t-32.5 -1q-94 2 -164.5 54t-70.5 167zM287 170q0 80 57 137.5t137 57.5t137.5 -57.5t57.5 -137.5t-57.5 -135t-137.5 -55t-137 55t-57 135z" />
<glyph unicode="@" horiz-adv-x="1466" d="M4 670q0 305 217 521t520 216q258 0 464 -160t220 -463q0 -6 1 -12t1 -10v-12v-13q0 -168 -117.5 -294t-289.5 -126h-283l21 76q-55 -49 -120 -77.5t-130 -28.5q-113 0 -180.5 81t-67.5 201q0 25 3 49.5t9 51.5q35 154 149 263t245 122h11h11q74 0 129 -36t86 -97l21 79 l266 23l-170 -557l70 -74q92 53 148 146.5t56 199.5q0 225 -157.5 382t-395.5 157q-252 0 -430 -178t-178 -430t178 -431.5t430 -179.5q133 0 248 53.5t197 141.5l100 -84q-100 -111 -241.5 -174.5t-303.5 -63.5q-303 0 -520 216.5t-217 521.5zM557 584q0 -59 23.5 -98.5 t62.5 -39.5q8 0 17.5 2.5t19.5 6.5q45 18 87 78.5t60 136.5q6 23 9.5 44t1.5 42q0 59 -22.5 98t-63.5 39q-8 0 -17.5 -2t-19.5 -6q-45 -18 -87 -77.5t-61 -137.5q-4 -23 -7 -44.5t-3 -41.5z" />
<glyph unicode="A" horiz-adv-x="2009" d="M0 0l260 319l385 807h2l-223 238h1081l-223 -238l369 -778l358 -348h-1132l299 272l-46 99h-528l-37 -88l266 -283h-831zM698 592h332l-170 375z" />
<glyph unicode="B" horiz-adv-x="1933" d="M4 0l328 301v762l-328 301h1387q178 0 305 -102.5t127 -239.5q0 -152 -142.5 -236t-320.5 -84h18q20 0 42 -1t44 -5q162 -23 296 -118t134 -236q0 -145 -127 -243.5t-305 -98.5h-274h-443h-509h-232zM799 268h446q49 0 85 39t36 103q0 66 -36 112.5t-85 46.5h-446v-301z M799 827h426q51 0 86 44t35 106q0 63 -35 106t-86 43h-426v-299z" />
<glyph unicode="C" horiz-adv-x="1718" d="M2 672q0 264 224.5 464.5t492.5 258.5q43 8 86 13t86 5q160 0 303 -47t256 -129l176 147v-651q-94 209 -275.5 316.5t-412.5 107.5q-150 0 -267.5 -125t-117.5 -344q0 -193 108.5 -331t307.5 -138q53 0 121.5 2t140.5 19q131 25 242.5 112.5t128.5 294.5q41 -33 59 -80 t18 -106q0 -35 -7 -71t-21 -73q-31 -82 -98.5 -159.5t-170.5 -130.5q-92 -47 -215 -71t-268 -24q-358 0 -627.5 216.5t-269.5 523.5z" />
<glyph unicode="D" horiz-adv-x="2004" d="M8 0l328 301v762l-328 301h1252q313 0 511.5 -200.5t198.5 -481.5t-211 -481.5t-510 -200.5h-1241zM803 268h375q133 0 191 126t58 304q0 176 -94 302t-227 126h-303v-858z" />
<glyph unicode="E" horiz-adv-x="1859" d="M4 0l328 301v762l-328 301h1788v-592l-322 354h-669v-299h370l240 170v-612l-240 170h-370v-287h649l373 381v-649h-1819z" />
<glyph unicode="F" horiz-adv-x="1820" d="M0 0l328 301v762l-328 301h1788v-592l-322 354h-671v-299h372l240 170v-612l-240 170h-372v-229l354 -326h-1149z" />
<glyph unicode="G" horiz-adv-x="2011" d="M4 651q0 305 271.5 533.5t617.5 228.5q168 0 317.5 -50t264.5 -136l157 137v-598q-104 145 -234 233t-265 127q-57 16 -113.5 24.5t-112.5 8.5q-152 0 -258 -142.5t-106 -342.5q0 -201 86 -344.5t262 -143.5q121 0 199.5 28t126.5 73v80l-369 327h1145l-336 -329v-435 l-203 156q-111 -74 -257 -114t-325 -40q-362 0 -615 206t-253 513z" />
<glyph unicode="H" horiz-adv-x="2164" d="M2 0l328 301v762l-328 301h1073l-264 -301v-184h526v184l-262 301h1071l-327 -301v-762l327 -301h-1071l262 301v240h-526v-240l264 -301h-1073z" />
<glyph unicode="I" horiz-adv-x="1105" d="M-8 0l327 301v762l-327 301h1108l-328 -301v-762l328 -301h-1108z" />
<glyph unicode="J" horiz-adv-x="1486" d="M6 375q0 63 9.5 121.5t33.5 107.5l324 68v-295q0 -66 44 -113t105 -47t105.5 47t44.5 113v676l-330 311h1131l-326 -305v-684q0 -182 -174 -312.5t-418 -130.5q-283 0 -416 130.5t-133 312.5z" />
<glyph unicode="K" horiz-adv-x="2138" d="M-2 0l328 301v762l-328 301h1071l-264 -301v-371l532 404l-227 268h999l-614 -485l315 -560l314 -319h-1034l272 299l-199 324l-358 -252v-70l264 -301h-1071z" />
<glyph unicode="L" horiz-adv-x="1802" d="M-2 0l328 301v762l-328 301h1108l-328 -301v-795h578l409 465v-733h-1767z" />
<glyph unicode="M" horiz-adv-x="2320" d="M0 1364h148h321h323h146l180 -619l178 619h1016l-325 -315v-736l325 -313h-1091l305 313v901l-352 -1214h-240l-342 1149v-836l313 -313h-901l330 313v736z" />
<glyph unicode="N" horiz-adv-x="1988" d="M-16 0l333 313v736l-325 315h807l573 -737v422l-342 315h938l-334 -315v-1049h-477l-582 782v-469l343 -313h-934z" />
<glyph unicode="O" horiz-adv-x="1767" d="M-2 651q0 305 255 533.5t613 228.5q360 0 614.5 -228.5t254.5 -533.5q0 -307 -254 -513t-615 -206q-358 0 -613 206t-255 513zM543 674q0 -217 95 -347t230 -130q133 0 228.5 129t95.5 348q0 201 -91 349t-233 148q-143 0 -234 -148t-91 -349z" />
<glyph unicode="P" horiz-adv-x="1931" d="M8 2l338 309v733l-338 322h1303h13h15q203 -12 373 -153.5t170 -323.5q0 -186 -149.5 -310t-360.5 -124h-553v-140l324 -313h-1135zM819 709h408q72 0 110.5 57t38.5 137t-38 137.5t-91 57.5l-428 -2v-387z" />
<glyph unicode="Q" horiz-adv-x="1808" d="M12 651q0 307 256 534.5t615 227.5q360 0 614 -227.5t254 -534.5q0 -248 -172 -434t-438 -252q31 -88 132 -139q84 -43 192 -43q22 0 44 2v-162h-643v309q-352 6 -603 211t-251 508zM559 674q0 -90 18.5 -167t51.5 -136q14 102 69.5 168.5t132.5 66.5q6 0 12.5 -1 t12.5 -1q78 -14 144.5 -104t78.5 -213q59 61 94 160.5t35 226.5q0 203 -91 351.5t-232 148.5q-143 0 -234.5 -148.5t-91.5 -351.5zM719 270q0 -2 2 -4v-6v-4q35 -27 77 -43t87 -16h5q3 0 5 2h5h5q6 16 9.5 35.5t3.5 39.5q0 70 -29 117t-70 47t-70.5 -47t-29.5 -117v-4z" />
<glyph unicode="R" horiz-adv-x="2048" d="M2 1366h1366h8h10q174 -6 320.5 -115.5t146.5 -253.5q0 -147 -116.5 -246.5t-280.5 -99.5h-26q143 -45 242.5 -167t117.5 -283l231 -199h-651l-135 408q-16 45 -56 78.5t-85 39.5h-9h-8h-278v-209l338 -317h-1129l322 305v744zM799 795h440q47 0 81 44t34 107.5 t-34 107.5t-81 44h-440v-303z" />
<glyph unicode="S" horiz-adv-x="1550" d="M2 950q0 205 149.5 345.5t399.5 140.5q176 0 313 -33t234 -92l239 114v-575q-59 68 -124.5 120t-133.5 89q-186 104 -350 120.5t-215 16.5h-6h-4q-74 0 -127 -31.5t-53 -74.5q0 -29 24.5 -52.5t63.5 -40.5l90 -13l198 -30l187 -26l100 -15q242 -35 380 -157.5t144 -323.5 q0 -10 1 -19q0 -194 -157 -333q-165 -145 -458 -146q-72 0 -155 10.5t-167 32.5q-74 18 -146.5 45t-137.5 64l-242 -147v700q68 -147 179.5 -235.5t232.5 -137.5q162 -66 303 -77t174 -11h2q76 0 138.5 34t64.5 73v3v3q0 4 -1 7t-1 5q-8 27 -38 49.5t-73 28.5q-37 4 -72.5 9 t-72.5 9q-41 4 -82 9.5l-82 11.5q-78 10 -155 22.5t-154 28.5q-176 37 -293 155.5t-117 323.5z" />
<glyph unicode="T" horiz-adv-x="1648" d="M-2 707l33 659h1542l33 -659l-346 421h-228v-813l342 -313h-1143l342 313v813h-227z" />
<glyph unicode="U" horiz-adv-x="2074" d="M-2 1366q0 2 172 2h381h137q68 0 129 -2h205h82l-299 -307v-623q0 -100 94 -167.5t231 -67.5t234.5 64.5t97.5 170.5v621l-301 309h67h167q49 2 103 2h112h307q139 0 139 -2l-338 -322v-677q0 -205 -183 -319t-509 -114q-289 0 -492.5 144.5t-203.5 349.5v623z" />
<glyph unicode="V" horiz-adv-x="2033" d="M2 1366h1135l-310 -295l357 -606l268 606l-287 295h850l-256 -238l-389 -911l221 -215h-1013l202 215l-450 834z" />
<glyph unicode="W" horiz-adv-x="2656" d="M6 1366h142h303h307h139l-199 -268l238 -529l194 529l-194 268h922l-218 -227l242 -514l205 514l-176 227h741l-305 -315l-315 -797l213 -252h-893l209 268l-228 572l-207 -588l181 -252h-895l194 252l-348 844z" />
<glyph unicode="X" horiz-adv-x="2000" d="M-18 1366q-2 2 159 2h357h127h118q117 -2 194 -2h77l-178 -227l190 -185l215 215l-194 197h888l-305 -238l-381 -393l465 -481l297 -252h-1048l194 205l-227 242l-242 -242l238 -205h-906l273 215l424 434l-422 447z" />
<glyph unicode="Y" horiz-adv-x="1931" d="M-2 1366h1075l-219 -238l248 -340l241 351l-233 227h823l-299 -268l-428 -609v-174l344 -313h-1132l332 313v183l-449 630z" />
<glyph unicode="Z" horiz-adv-x="1611" d="M-2 2l836 1126h-420l-299 -399v637h1487l-828 -1096h488l309 488v-756h-1573z" />
<glyph unicode="[" horiz-adv-x="780" d="M35 -266v1696h710v-84h-362v-1524h362v-88h-710z" />
<glyph unicode="\" />
<glyph unicode="]" horiz-adv-x="780" d="M33 -178h362v1524h-362v84h710v-1696h-710v88z" />
<glyph unicode="^" />
<glyph unicode="_" horiz-adv-x="1437" d="M0 -2h1468v-156h-1468v156z" />
<glyph unicode="`" horiz-adv-x="602" d="M18 1815h404l102 -435h-198z" />
<glyph unicode="a" horiz-adv-x="1314" d="M6 188q0 139 86 217t238 111l391 84v96q0 49 -49 74t-113 25h-3h-3q-63 -2 -117.5 -31t-54.5 -82q0 -8 1 -17.5t1 -19.5q2 -12 7 -24.5t11 -22.5q-10 -2 -20 -5t-23 -5q-20 -6 -44.5 -11.5t-47.5 -9.5t-43 -6t-41 -2q-63 0 -107 29.5t-44 109.5v18q0 9 2 17 q14 119 158.5 183.5t314.5 78.5q29 4 57.5 5t54.5 1q219 -2 352.5 -72.5t133.5 -191.5v-456q0 -72 17.5 -103t37.5 -31q31 0 43 36t12 79v3v3q0 29 -4 53.5t-10 36.5q53 -14 78 -53t27 -129q0 -100 -74 -162.5t-207 -62.5q-127 0 -197.5 58.5t-78.5 148.5q-2 -2 -3.5 -5 t-3.5 -8q-35 -74 -130 -134t-263 -60q-152 0 -247 57t-95 180zM385 262q0 -55 38 -82.5t85 -27.5q12 0 24.5 2t24.5 6q14 4 29.5 10t29.5 14q41 23 75 62t34 102v90l-178 -39q-72 -14 -117 -45t-45 -92z" />
<glyph unicode="b" horiz-adv-x="1441" d="M-2 1413h637v-620q41 94 108.5 151t186.5 57q207 0 339 -162.5t132 -381.5q0 -221 -159 -366.5t-365 -145.5q-137 0 -245 70.5t-169 187.5l-180 -234h-35v1196zM635 465q0 -129 51 -220t135 -91q78 0 132.5 79.5t54.5 231.5q0 154 -54.5 233.5t-132.5 79.5 q-76 0 -131 -92t-55 -221z" />
<glyph unicode="c" horiz-adv-x="1193" d="M8 477q6 221 202 372.5t449 151.5q31 0 63 -3t64 -9q127 -23 232.5 -92.5t105.5 -181.5q0 -74 -53 -120t-131 -46q-29 0 -55.5 6t-48.5 20q4 18 6 36t2 32q0 88 -54.5 130t-140.5 42q-94 0 -163 -74q-67 -72 -66 -243v-11q2 -188 69.5 -249.5t155.5 -73.5q16 -2 33.5 -3 t38.5 -1q27 0 54.5 3t55.5 9q51 10 99.5 33.5t85.5 66.5q39 45 49 98.5t10 110.5q31 -33 47.5 -73.5t20.5 -81.5v-13v-12q-2 -53 -19.5 -102t-46.5 -82q-23 -27 -49.5 -50.5t-60.5 -41.5q-72 -39 -158 -59.5t-197 -20.5q-254 0 -431 155q-169 149 -169 358v19z" />
<glyph unicode="d" horiz-adv-x="1470" d="M10 477q0 213 141.5 362.5t311.5 161.5h11h11q104 0 182 -63.5t124 -159.5v389l-299 246h682v-1167l301 -246h-684v164q-39 -100 -121 -159.5t-185 -59.5h-11h-11q-170 8 -311.5 141t-141.5 391zM401 473q0 -172 54.5 -243.5t134.5 -75.5h3q70 0 125 85q56 87 56 234.5 t-51 233.5t-131 86q-94 0 -142.5 -93.5t-48.5 -226.5z" />
<glyph unicode="e" horiz-adv-x="1183" d="M12 467q0 238 173 386t403 148q246 0 396.5 -174t158.5 -407h-723q0 -139 73.5 -202.5t268.5 -63.5q25 0 50.5 2t51.5 6q27 4 52.5 10t50.5 14q59 18 104 57.5t70 84.5q6 -18 9 -37t3 -37q0 -88 -65.5 -162t-167.5 -106q-72 -23 -147 -32t-165 -9q-270 0 -433 146.5 t-163 375.5zM422 588h395q2 115 -59.5 170t-136.5 55q-76 0 -138.5 -56t-60.5 -169z" />
<glyph unicode="f" horiz-adv-x="1128" d="M-12 0l299 252v530h-246l51 197h193v135q0 133 127 226.5t301 93.5q188 0 277 -64.5t104 -142.5q0 -8 1 -15.5t1 -15.5q0 -63 -50 -107q-48 -42 -133 -43q-4 0 -8 1q-25 0 -51.5 3t-54.5 11h-2q6 16 10 32.5t4 36.5q0 51 -22.5 86t-53.5 35t-53.5 -34.5t-22.5 -86.5v-151 h277l-51 -197h-226v-530l302 -252h-973z" />
<glyph unicode="g" horiz-adv-x="1232" d="M-49 -221q0 53 49 100t135 78q-57 27 -92 97q-31 63 -31 144v19q4 96 51.5 171t110.5 95q-55 41 -87 90.5t-32 102.5q0 127 150.5 215t361.5 88q111 0 207 -25.5t166 -68.5q-2 10 -2 21v26q2 57 40 97t91 40t91 -40t38 -97q0 -39 -20.5 -67.5t-61.5 -28.5h-5h-5 q-4 0 -6 1t-6 1v10v12q0 37 -11.5 61.5t-27.5 24.5q-14 0 -26.5 -24.5t-12.5 -61.5q0 -10 1 -20.5t3 -20.5q29 -33 45 -67.5t16 -75.5q0 -125 -150.5 -215t-363.5 -90q-63 0 -124.5 14t-114.5 31q-4 2 -8.5 3t-8.5 3q-2 2 -5 2t-7 2q-6 0 -11 1t-14 1q-39 0 -67.5 -23.5 t-34.5 -50.5v-3v-3q-2 -31 23 -52q22 -20 56 -20h7q57 2 115.5 5.5t118.5 5.5l144 8l144 8h5h8h11q149 0 275 -101q131 -105 131 -272v-2q0 -217 -149.5 -292.5t-329.5 -88.5q-63 -4 -125.5 -4t-120.5 2h-15h-15q-203 6 -353.5 72t-150.5 162zM225 -166q0 -59 120 -94 q107 -31 253 -31h35h3h3q20 0 66.5 2t97.5 10q66 8 121 31t55 66v-2q0 35 -49 62.5t-121 27.5l-530 -2q-25 -14 -39.5 -32t-14.5 -38zM424 674q0 -61 43 -105.5t100 -44.5q59 0 100.5 44t41.5 106q0 63 -41 107t-101 44q-57 0 -100 -44t-43 -107z" />
<glyph unicode="h" horiz-adv-x="1675" d="M-6 0l291 246v913l-281 254h666v-678q53 111 131 188.5t233 77.5q156 0 261.5 -81.5t105.5 -204.5v-463l254 -252h-791l156 207v381q0 61 -44 105t-108 44q-82 0 -126 -69.5t-70 -151.5q0 -2 -1 -3t-1 -3v-305l161 -205h-837z" />
<glyph unicode="i" horiz-adv-x="919" d="M-4 979h666v-733l245 -246h-880l252 246v459zM254 1233q0 84 59.5 142.5t141.5 58.5q84 0 142 -58.5t58 -142.5q0 -82 -58 -141.5t-142 -59.5q-82 0 -141.5 59.5t-59.5 141.5z" />
<glyph unicode="j" horiz-adv-x="743" d="M-104 -205q0 8 1 18.5t5 18.5q14 49 62 89t126 40q20 -2 41 -5t43 -9v-129q0 -25 18.5 -43.5t45.5 -18.5q29 0 47 18.5t18 45.5v901l-297 258h678v-1079q0 -147 -115.5 -253t-279.5 -106q-16 0 -34.5 1t-35.5 1q-123 10 -223 65.5t-100 186.5zM283 1233q0 84 59 142.5 t141 58.5q84 0 142.5 -58.5t58.5 -142.5q0 -82 -58.5 -141.5t-142.5 -59.5q-82 0 -141 59.5t-59 141.5z" />
<glyph unicode="k" horiz-adv-x="1734" d="M0 1413h655v-919l283 241l-213 244h926l-457 -371l291 -387l233 -221h-862l158 199l-137 207l-222 -177v-4l172 -225h-807l250 246v923z" />
<glyph unicode="l" horiz-adv-x="915" d="M-8 1413h655v-1167l256 -246h-891l252 246v923z" />
<glyph unicode="m" horiz-adv-x="2420" d="M0 979h666v-229q53 104 130.5 177.5t229.5 73.5q127 0 222 -77.5t128 -190.5q53 111 132 189.5t235 78.5t261 -98t105 -219v-432l285 -252h-821l158 207v381q0 78 -45.5 113.5t-108.5 35.5q-72 0 -115 -57t-71 -131v-348l159 -201h-696l158 207v381q0 78 -45 113.5 t-107 35.5q-78 0 -122 -63.5t-72 -141.5v-327l163 -205h-796l250 246v459z" />
<glyph unicode="n" horiz-adv-x="1679" d="M4 979h666v-244q53 111 132 188.5t234 77.5q156 0 261.5 -81.5t105.5 -204.5v-463l252 -252h-789l156 207v381q0 61 -44 105t-108 44q-82 0 -127 -69.5t-71 -151.5q0 -2 -1 -3t-1 -3v-305l161 -205h-796l252 246v459z" />
<glyph unicode="o" horiz-adv-x="1302" d="M0 477q0 221 186.5 378t446.5 157q262 0 448.5 -157t186.5 -378t-186.5 -376.5t-448.5 -155.5q-260 0 -446.5 155.5t-186.5 376.5zM406 479q0 -137 58 -236.5t167 -99.5t166 99.5t57 236.5q0 139 -61.5 237.5t-161.5 98.5t-162.5 -98.5t-62.5 -237.5z" />
<glyph unicode="p" horiz-adv-x="1503" d="M2 979h682v-197q41 100 123 161t184 61h11h12q170 -8 311 -141.5t141 -391.5q0 -213 -141 -361.5t-311 -160.5h-12h-11q-104 0 -182 62.5t-125 158.5v-360l301 -244q-236 2 -472 2h-474l262 242v903zM702 475q0 -147 51.5 -234t129.5 -87q96 0 143 94t47 227 q0 170 -54 243t-132 75h-3q-68 0 -124 -84q-58 -87 -58 -234z" />
<glyph unicode="q" horiz-adv-x="1216" d="M4 496q0 221 157.5 367.5t364.5 146.5q137 0 245 -72t169 -188l180 233h35v-1169l264 -248h-936l285 248v346q-41 -94 -107.5 -149.5t-185.5 -55.5q-207 0 -339 161t-132 380zM395 487q0 -152 55.5 -232.5t131.5 -80.5q78 0 132 92t54 221t-51 220.5t-135 91.5 q-76 0 -131.5 -80t-55.5 -232z" />
<glyph unicode="r" horiz-adv-x="1298" d="M0 979h621v-307l8 20l8 21q6 14 12 26.5t10 24.5l34 65q15 29 26 41q41 49 103.5 79t135.5 30q123 0 209 -75t86 -179q0 -121 -64.5 -191.5t-172.5 -70.5q-31 0 -64.5 7t-68.5 19q12 20 21 50t14 61q0 10 1 20.5t1 20.5q0 41 -14.5 74t-51.5 45q-6 2 -12 3t-13 1 q-6 0 -12 -1t-12 -3q-35 -8 -66.5 -41t-54.5 -82q-12 -25 -21.5 -57.5t-17.5 -67.5q-6 -29 -9 -57.5t-3 -51.5v-157l305 -246h-934l248 246v463z" />
<glyph unicode="s" horiz-adv-x="1228" d="M27 668q0 145 113.5 244.5t301.5 99.5q133 0 237.5 -24.5t178.5 -65.5l182 82v-408q-39 41 -80.5 73.5t-82.5 55.5q-133 76 -253 86q-100 9 -152 9q-10 0 -19 -1q-8 -2 -14 -2h-9q-10 0 -20.5 -1t-20.5 -5q-31 -6 -55.5 -19.5t-26.5 -37.5q0 -4 1 -9.5t3 -11.5 q6 -10 18.5 -20.5t32.5 -12.5q18 -2 39 -3t41 -3l42 -4q22 -2 42 -2l141 -14q62 -6 76 -10q182 -25 304 -123.5t127 -241.5q4 -147 -121 -250.5t-346 -103.5q-53 0 -117 7t-127 23q-57 14 -112.5 33t-104.5 45l-193 -104v497q115 -156 295 -240.5t391 -92.5q6 0 12 -1 q49 0 79 17q34 18 40 41v4v4q-2 25 -28.5 40t-59.5 20q-8 2 -16 3t-16 1q-106 4 -171 10t-122 18q-31 6 -60.5 13.5l-66.5 17.5q-131 39 -217 119t-86 248z" />
<glyph unicode="t" horiz-adv-x="937" d="M0 780v88q193 61 339 200.5t216 326.5h33v-416h266l-92 -199h-174v-504q0 -35 23.5 -60.5t56.5 -25.5q68 0 90 55.5t22 133.5q0 25 -3 48.5t-7 43.5q59 -4 87 -53t36 -109q2 -16 3 -32.5t1 -30.5q0 -125 -101.5 -213t-244.5 -88q-141 0 -242.5 88t-101.5 213v534h-207z " />
<glyph unicode="u" horiz-adv-x="1660" d="M0 979h635l-2 -619q0 -61 45 -105t108 -44q84 0 128 70.5t71 156.5v289l-274 252h659v-705l281 -274h-666v211q-51 -109 -129 -185.5t-235 -76.5q-156 0 -261.5 81t-105.5 203v494z" />
<glyph unicode="v" horiz-adv-x="1648" d="M0 979h895l-190 -229l219 -390l186 390l-184 229h719l-256 -250l-279 -528l174 -201h-889l185 203l-318 524z" />
<glyph unicode="w" horiz-adv-x="2304" d="M0 979h793l-146 -231l193 -392l145 416l-166 207h821l-172 -231l195 -406l158 406l-158 231h641l-238 -231l-247 -596l139 -152h-756l127 162l-172 370l-153 -370l133 -162h-801l168 199l-246 530z" />
<glyph unicode="x" horiz-adv-x="1675" d="M-2 979h891l-131 -180l131 -137l149 137l-131 180h695l-179 -145l-358 -322l379 -348l231 -164h-870l145 137l-164 144l-157 -123l149 -158h-758l310 219l284 219l-397 381z" />
<glyph unicode="y" horiz-adv-x="1636" d="M-4 979h909l-162 -217l230 -391l145 377l-178 231h686l-248 -246l-313 -842q-63 -164 -161.5 -257t-287.5 -93q-150 0 -255 67.5t-105 164.5q0 90 79 153.5t191 63.5q14 0 29.5 -1t32.5 -5q8 0 15 -2t15 -5q-2 -2 -3 -6t-1 -6q-6 -18 -11 -43.5t-7 -52.5v-11v-10 q2 -37 13.5 -67.5t39.5 -38.5q4 -2 9 -2h8q41 0 69.5 43t42.5 96q6 16 10.5 32.5t6.5 31.5l-492 790z" />
<glyph unicode="z" horiz-adv-x="1222" d="M-6 0l581 799h-264l-233 -320v500h1134l-565 -782h305l228 315v-512h-1186z" />
<glyph unicode="{" horiz-adv-x="860" d="M2 545v88h31q78 0 132 47t54 125v412q0 84 53.5 148.5t128.5 64.5h447v-84h-207q-29 0 -51.5 -23t-22.5 -51v-445q0 -100 -66.5 -164.5t-162.5 -74.5q96 -8 162.5 -73.5t66.5 -166.5v-442q0 -29 22.5 -50.5t51.5 -21.5l207 -2v-84h-447q-76 2 -129 66.5t-53 148.5v410 q0 78 -54 125t-132 47h-31z" />
<glyph unicode="|" />
<glyph unicode="}" horiz-adv-x="813" d="M4 -168h207q29 2 51.5 23.5t22.5 52.5v440q0 100 66.5 166t162.5 74q-96 10 -162.5 74.5t-66.5 164.5v445q0 29 -22.5 51.5t-51.5 22.5h-207v84h447q76 0 129 -65t53 -148v-412q0 -78 55 -125t131 -47h31v-88h-31q-76 0 -131 -47t-55 -125v-412q0 -82 -53.5 -146.5 t-128.5 -64.5l-447 -2v84z" />
<glyph unicode="~" />
<glyph unicode="&#xa1;" horiz-adv-x="421" d="M6 719q0 80 57.5 136t137.5 56t136 -56t56 -136t-56 -137.5t-136 -57.5t-137.5 57.5t-57.5 137.5zM14 -270v-2q0 14 1 26.5t1 22.5q10 106 54.5 225t95.5 309q6 29 14 57.5t15 59.5h16q6 -31 14 -59.5t15 -57.5q51 -190 95 -309t54 -225q0 -10 1 -22.5t1 -24.5 q0 -102 -55 -173t-133 -71t-133.5 71t-55.5 173z" />
<glyph unicode="&#xa2;" horiz-adv-x="1198" d="M4 674q6 205 177 351t403 169v276h137v-276q14 -2 27.5 -3t27.5 -5q129 -23 236.5 -92.5t107.5 -184.5q0 -72 -53 -119t-131 -47q-29 0 -55.5 7.5t-49.5 21.5q4 18 6.5 35.5t2.5 32.5q0 86 -54.5 128t-140.5 42q-94 0 -162.5 -73t-66.5 -255q2 -186 69.5 -248.5 t155.5 -73.5q16 -2 33.5 -3t38.5 -1q27 0 54.5 3t55.5 10q51 10 99.5 33.5t85.5 66.5q39 45 49 98.5t10 110.5q27 -31 42 -64.5t21 -68.5q2 -12 3.5 -23.5t1.5 -23.5q-2 -53 -19.5 -102.5t-46.5 -82.5q-23 -27 -49.5 -50t-61.5 -42q-51 -29 -109 -47t-128 -29v-247h-137v241 q-248 8 -416 163t-164 372z" />
<glyph unicode="&#xa3;" horiz-adv-x="1439" d="M0 967q0 207 186.5 323.5t450.5 116.5q326 0 482.5 -91t156.5 -204q0 -96 -76 -146.5t-166 -66.5q-29 -6 -56.5 -8t-53.5 -2q-18 0 -35 1t-31 3q4 8 9 16.5l10 16.5q12 20 19 44.5t7 63.5q0 72 -65.5 117t-155.5 45q-123 0 -172 -53t-49 -129q0 -23 4 -46.5t10 -47.5 q18 -59 51 -114.5t70 -94.5h264v-201h-168v-4v-2v-4v-4q0 -82 -46 -148.5t-122 -83.5q29 -25 70 -43t82 -33q31 -8 60.5 -14t56.5 -10q4 0 7 -1t7 -1h7h7q78 0 134.5 51t58.5 127q2 35 -8.5 67.5t-30.5 61.5q172 -2 288.5 -58.5t116.5 -177.5q0 -111 -139 -197.5t-336 -86.5 q-135 0 -217 24.5t-139 53.5l-47 24l-43 23q-29 14 -58.5 22t-64.5 8q-70 0 -133.5 -28.5t-108.5 -61.5q-27 -16 -46 -34l-32 -31v311q92 -2 156 54.5t64 142.5q0 12 -2.5 25.5t-6.5 27.5h-213v201h103q-57 53 -87 118.5t-30 137.5z" />
<glyph unicode="&#xa4;" horiz-adv-x="1845" d="M-8 569l96 129h57v9v8q-2 4 -2 8v8v8q0 4 2 9v8v8h-153l96 129h82q66 203 261.5 350.5t414.5 196.5q49 12 96 17t92 5q158 0 301.5 -47t255.5 -129l178 148v-652q-96 209 -277 316.5t-413 107.5q-119 0 -221 -82t-143 -231h708l-96 -129h-631q0 -4 -1 -8t-1 -8v-9v-8v-16 q0 -8 2 -17h604l-96 -129h-489q41 -150 143.5 -232.5t220.5 -82.5q231 0 412.5 108.5t277.5 315.5v-651l-178 147q-113 -82 -256 -128t-301 -46q-45 0 -92 5t-96 18q-219 49 -414.5 196.5t-261.5 349.5h-178z" />
<glyph unicode="&#xa5;" horiz-adv-x="1986" d="M6 1364h1075l-219 -238l248 -340l242 351l-234 227h824l-300 -268l-90 -129h138v-201h-279l-123 -174h354v-201h-428v-78l345 -313h-1133l332 313v78h-375v201h307l-125 174h-223v201h80l-113 159z" />
<glyph unicode="&#xa6;" />
<glyph unicode="&#xa7;" />
<glyph unicode="&#xa8;" horiz-adv-x="602" d="M68 1593q0 43 30.5 74t75.5 31q43 0 74 -31t31 -74t-31 -73.5t-74 -30.5q-45 0 -75.5 30.5t-30.5 73.5zM319 1593q0 43 31 74t76 31q43 0 73.5 -31t30.5 -74t-30.5 -73.5t-73.5 -30.5q-45 0 -76 30.5t-31 73.5z" />
<glyph unicode="&#xa9;" horiz-adv-x="1562" d="M10 700q0 305 218 523.5t524 218.5q305 0 523 -218t218 -523.5t-217 -522.5t-524 -217q-305 0 -523.5 217t-218.5 522zM92 700q0 -272 193.5 -465.5t466.5 -193.5q274 0 466.5 193.5t192.5 465.5q0 270 -192.5 465t-466.5 195q-272 0 -466 -194t-194 -466zM287 700 q0 147 125 259t274 143q23 4 47.5 7t46.5 3q90 0 169 -25.5t143 -70.5l96 82v-363q-51 115 -152.5 175.5t-230.5 60.5q-82 0 -147.5 -70t-65.5 -190q0 -109 60.5 -185.5t170.5 -76.5q29 0 67 1t79 9q72 14 134 63t71 164q23 -16 34 -44t11 -60q0 -20 -5.5 -42t-13.5 -42 q-18 -45 -55 -86t-92 -70q-51 -27 -119 -40t-150 -13q-199 0 -348 120.5t-149 290.5z" />
<glyph unicode="&#xaa;" horiz-adv-x="847" d="M0 872q0 86 53 135.5t148 69.5l243 51v62q0 31 -30.5 46t-69.5 15q-41 -2 -76 -18t-35 -51v-7v-8l5 -20q2 -10 8 -19q-6 -2 -13.5 -4l-15.5 -4q-12 -2 -27.5 -5t-29.5 -7q-12 -2 -25.5 -3t-25.5 -1q-39 0 -67 18.5t-28 69.5v4q0 2 2 6v5v5q8 74 97.5 113t195.5 49 q18 2 35.5 3t36.5 1q137 0 219 -44t82 -120v-282q0 -45 10 -64.5t25 -19.5q18 0 26.5 21.5t8.5 48.5v3v3q0 16 -3.5 31.5t-7.5 23.5q35 -8 50.5 -32.5t15.5 -80.5q0 -63 -46 -102t-128 -39q-80 0 -124 36t-48 93q0 -2 -1 -3t-1 -3q-23 -45 -81.5 -84t-164.5 -39 q-94 0 -153.5 35.5t-59.5 111.5zM236 920q0 -35 23.5 -52.5t49.5 -17.5q10 0 17.5 2l15.5 4t17.5 6t17.5 8q27 12 48 37t21 66v55l-110 -22q-45 -10 -72.5 -28.5t-27.5 -57.5z" />
<glyph unicode="&#xab;" horiz-adv-x="1175" d="M6 739l375 377h348l-377 -377l377 -377h-348zM436 739l375 377h348l-377 -377l377 -377h-348z" />
<glyph unicode="&#xac;" />
<glyph unicode="&#xad;" />
<glyph unicode="&#xae;" horiz-adv-x="821" d="M2 1059q0 154 109.5 263.5t265.5 109.5q154 0 263.5 -110t109.5 -263q0 -156 -110 -265.5t-263 -109.5q-156 0 -265.5 109.5t-109.5 265.5zM63 1059q0 -129 92.5 -221.5t221.5 -92.5q127 0 219 92.5t92 221.5q0 127 -91 219t-220 92t-221.5 -91t-92.5 -220zM178 1231h279 q37 0 67.5 -27.5t30.5 -64.5t-22.5 -61.5t-57.5 -24.5h-6q29 -10 50.5 -40t23.5 -71l47 -49h-133l-27 100q-2 12 -12 20.5t-21 8.5h-57v-51l70 -78h-230l66 76v184zM340 1090h90q10 0 17.5 11t7.5 25q0 16 -7.5 26.5t-17.5 10.5h-90v-73z" />
<glyph unicode="&#xaf;" horiz-adv-x="409" />
<glyph unicode="&#xb0;" />
<glyph unicode="&#xb1;" />
<glyph unicode="&#xb2;" horiz-adv-x="788" d="M8 752q2 14 25.5 53t60.5 82q25 31 53.5 59.5t59.5 48.5q4 2 8 5.5t8 5.5l193 127q29 25 46 54.5t17 59.5q0 45 -27.5 73t-99.5 28q-51 0 -89 -32t-38 -77q0 -12 1 -27.5t5 -31.5q2 -16 10.5 -31.5t20.5 -28.5q-2 -8 -21.5 -13t-45.5 -5q-12 0 -26 2l-28 4q-45 10 -83 43 t-38 98q0 86 106.5 147.5t256.5 61.5q152 0 258.5 -61.5t106.5 -147.5q0 -49 -41 -94t-109 -74l-283 -137q-18 -8 -36.5 -18.5t-36.5 -22.5l-14 -9l-13 -9h373l147 192v-325h-727z" />
<glyph unicode="&#xb3;" horiz-adv-x="778" d="M12 905q0 53 46 84t114 31q14 0 28.5 -1t28.5 -5q-10 -8 -14 -24.5t-6 -33.5v-11v-9q0 -39 32.5 -68.5t106.5 -29.5q63 0 100 25.5t37 70.5q0 63 -39.5 81.5t-148.5 16.5v105q100 -2 138 11t38 85q0 41 -36 68.5t-89 27.5q-70 0 -97.5 -27.5t-31.5 -68.5q-2 -18 3 -34.5 t16 -33.5q-6 -2 -13.5 -3t-13.5 -1q-6 -2 -13 -2h-14q-61 0 -104 30t-43 73q0 84 99.5 132t238.5 48q156 0 246 -63.5t90 -147.5q0 -51 -44 -90t-116 -62q84 -18 135 -59t51 -100q0 -82 -97 -144.5t-265 -62.5q-150 0 -256.5 52t-106.5 140z" />
<glyph unicode="&#xb4;" horiz-adv-x="602" d="M123 1380l102 435h404l-307 -435h-199z" />
<glyph unicode="&#xb5;" />
<glyph unicode="&#xb6;" />
<glyph unicode="&#xb7;" horiz-adv-x="409" />
<glyph unicode="&#xb8;" horiz-adv-x="913" d="M195 -248q0 35 24.5 55.5t52.5 18.5q12 0 24.5 -3t22.5 -11l-4 -21l-4 -20q-2 -49 19.5 -84t68.5 -35q39 0 68 34.5t35 84.5q2 8 2 17v19q0 68 -34 96.5t-79 26.5q-8 0 -16 -1t-15 -3q-16 -2 -31.5 -8t-29.5 -14q31 45 64.5 66.5t68.5 27.5q12 2 24 2h23q109 0 166 -60.5 t57 -148.5v-2q0 -84 -82.5 -145.5t-191.5 -61.5q-57 0 -107.5 16.5t-80.5 51.5q-25 31 -35 56.5t-10 45.5z" />
<glyph unicode="&#xb9;" horiz-adv-x="636" d="M6 762l203 160v381l-203 145h430v-528l180 -158h-610z" />
<glyph unicode="&#xba;" horiz-adv-x="866" d="M8 1053q0 137 117 234t278 97q162 0 278 -97t116 -234.5t-116 -235.5t-278 -98t-278.5 98.5t-116.5 235.5zM262 1053q0 -86 36 -147.5t103 -61.5q66 0 103 61.5t37 147.5t-39 147.5t-101 61.5q-63 0 -101 -61.5t-38 -147.5z" />
<glyph unicode="&#xbb;" horiz-adv-x="1153" d="M4 362l377 377l-377 377h348l375 -377l-375 -377h-348zM414 362l377 377l-377 377h348l375 -377l-375 -377h-348z" />
<glyph unicode="&#xbc;" horiz-adv-x="1454" d="M-102 -211l1382 1641h164l-1383 -1641h-163zM6 764l203 160v381l-203 145h430v-528l180 -158h-610zM629 186v133l432 359h213v-377h168l-58 -115h-110v-34l180 -156h-612l205 158v32h-418zM797 301h250v219z" />
<glyph unicode="&#xbd;" horiz-adv-x="1544" d="M-102 -211l1382 1641h164l-1383 -1641h-163zM0 719l203 160v381l-203 145h430v-528l180 -158h-610zM770 -6q2 14 25.5 53t60.5 82q25 31 53.5 59.5t59.5 49.5q4 2 8 5t8 5l193 127q29 25 46 54.5t17 59.5q0 45 -27.5 73t-99.5 28q-51 0 -89 -32t-38 -77q0 -12 1 -27.5 t5 -31.5q2 -16 10.5 -31.5t20.5 -28.5q-2 -8 -21.5 -13t-46.5 -5q-12 0 -25 2l-28 4q-45 10 -83 43t-38 99q0 86 106.5 147t256.5 61q152 0 258 -61t106 -147q0 -49 -41 -94.5t-108 -73.5l-283 -138q-18 -8 -36.5 -18t-36.5 -23l-14 -9l-13 -9h373l147 192v-325h-727z" />
<glyph unicode="&#xbe;" horiz-adv-x="1454" d="M-102 -211l1382 1641h164l-1383 -1641h-163zM-4 942q0 53 45 84t113 31q14 0 28.5 -1t28.5 -5q-10 -8 -14 -24.5t-7 -33.5v-11v-9q0 -39 33 -69t107 -30q63 0 100 26t37 71q0 63 -40 81.5t-148 16.5v105q100 -2 138 11t38 85q0 41 -36 68.5t-89 27.5q-70 0 -97.5 -27.5 t-31.5 -68.5q-2 -18 3 -34.5t15 -33.5q-6 -2 -13 -3t-13 -1q-6 -2 -14 -2h-13q-61 0 -104.5 29.5t-43.5 72.5q0 84 99.5 132.5t238.5 48.5q156 0 246 -63.5t90 -147.5q0 -51 -44 -90t-116 -62q84 -18 135.5 -59t51.5 -101q0 -82 -97.5 -144t-265.5 -62q-150 0 -255 52 t-105 140zM629 186v133l432 359h213v-377h168l-58 -115h-110v-34l180 -156h-612l205 158v32h-418zM797 301h250v219z" />
<glyph unicode="&#xbf;" horiz-adv-x="1017" d="M-4 -104q2 109 69.5 191.5t180.5 115.5t142.5 82t31.5 125h63v-10q0 -5 2 -9q4 -96 -11 -188t-56 -160q-16 -27 -29.5 -59.5t-17.5 -67.5q-2 -6 -2 -11v-11q0 -88 33.5 -141.5t115.5 -53.5q68 0 106 57.5t40 137.5q0 55 -13.5 99t-36.5 73l32 8q15 4 32 6q16 4 32.5 5 t30.5 1q96 -2 167 -53t71 -166q0 -176 -139.5 -277.5t-341.5 -101.5q-203 0 -351.5 125t-148.5 285zM299 719q0 80 57.5 136t137.5 56t137 -56t57 -136t-57.5 -137.5t-136.5 -57.5q-80 0 -137.5 57.5t-57.5 137.5z" />
<glyph unicode="&#xc0;" horiz-adv-x="2009" d="M0 0l260 319l385 807h2l-223 238h1081l-223 -238l369 -778l358 -348h-1132l299 272l-46 99h-528l-37 -88l266 -283h-831zM592 1831h403l103 -434h-199zM698 592h332l-170 375z" />
<glyph unicode="&#xc1;" horiz-adv-x="2009" d="M0 0l260 319l385 807h2l-223 238h1081l-223 -238l369 -778l358 -348h-1132l299 272l-46 99h-528l-37 -88l266 -283h-831zM698 592h332l-170 375zM905 1397l103 434h403l-307 -434h-199z" />
<glyph unicode="&#xc2;" horiz-adv-x="2009" d="M0 0l260 319l385 807h2l-223 238h1081l-223 -238l369 -778l358 -348h-1132l299 272l-46 99h-528l-37 -88l266 -283h-831zM594 1386l219 431h315l232 -431h-385l-70 277l-67 -277h-244zM698 592h332l-170 375z" />
<glyph unicode="&#xc3;" horiz-adv-x="2009" d="M0 0l260 319l385 807h2l-223 238h1081l-223 -238l369 -778l358 -348h-1132l299 272l-46 99h-528l-37 -88l266 -283h-831zM582 1438q0 27 10 74t26 98q10 33 22.5 63.5t29.5 57.5q29 49 77 85.5t111 45.5h4h4h2h4q10 0 21.5 -2t21.5 -7q14 -4 29 -10l29 -12q6 -4 13 -7 t15 -7q18 -8 39 -21l41 -24l63 -35t64 -21q6 -2 13 -2h12q8 0 17.5 1t17.5 5q8 2 17 6.5t18 10.5q23 16 34 42.5t21 57.5q2 6 4 13.5l4 15.5h47q-2 -35 -7 -75t-13 -79q-23 -109 -78 -201t-174 -106h-4h-4h-5h-4q-37 0 -71.5 13.5t-69.5 29.5q-6 2 -13 6t-14 6q-14 6 -34 18 l-43 23l-34 17l-36 16q-20 6 -39.5 11t-38.5 5q-20 0 -39.5 -8t-34.5 -26q-8 -10 -11 -23.5t-5 -26.5q0 -2 -1 -4t-1 -4q0 -6 -1 -11t-3 -9h-53zM698 592h332l-170 375z" />
<glyph unicode="&#xc4;" horiz-adv-x="2009" d="M0 0l260 319l385 807h2l-223 238h1081l-223 -238l369 -778l358 -348h-1132l299 272l-46 99h-528l-37 -88l266 -283h-831zM698 592h332l-170 375zM723 1499q0 43 30.5 74t75.5 31q43 0 74 -31t31 -74t-31 -73.5t-74 -30.5q-45 0 -75.5 30.5t-30.5 73.5zM975 1499 q0 43 30.5 74t75.5 31q43 0 74 -31t31 -74t-31 -73.5t-74 -30.5q-45 0 -75.5 30.5t-30.5 73.5z" />
<glyph unicode="&#xc5;" horiz-adv-x="2009" d="M0 0l260 319l385 807h2l-223 238h1081l-223 -238l369 -778l358 -348h-1132l299 272l-46 99h-528l-37 -88l266 -283h-831zM698 592h332l-170 375zM791 1544q0 61 44 105.5t105 44.5q63 0 107.5 -44t44.5 -106q0 -63 -44 -107t-108 -44q-61 0 -105 44t-44 107zM893 1544 q0 -20 13.5 -34.5t33.5 -14.5t34.5 14.5t14.5 35t-14 33.5t-35 13q-20 0 -33.5 -13.5t-13.5 -33.5z" />
<glyph unicode="&#xc6;" horiz-adv-x="2824" d="M-4 0l332 268l680 840l-234 256h1952v-592l-322 354h-589v-299h290l240 170v-612l-240 170h-290v-287h569l373 381v-649h-1737l328 301v78h-547l-94 -117l276 -262h-987zM961 575h387v480z" />
<glyph unicode="&#xc7;" horiz-adv-x="1718" d="M2 672q0 264 224.5 464.5t492.5 258.5q43 8 86 13t86 5q160 0 303 -47t256 -129l176 147v-651q-94 209 -275.5 316.5t-412.5 107.5q-150 0 -267.5 -125t-117.5 -344q0 -193 108.5 -331t307.5 -138q53 0 121.5 2t140.5 19q131 25 242.5 112.5t128.5 294.5q41 -33 59 -80 t18 -106q0 -35 -7 -71t-21 -73q-31 -82 -98.5 -159.5t-170.5 -130.5q-92 -47 -215 -71t-268 -24q-358 0 -627.5 216.5t-269.5 523.5zM649 -285q0 35 24.5 55.5t53.5 18.5q12 0 24.5 -3t22.5 -11l-4 -21l-4 -20q-2 -49 19.5 -84t68.5 -35q39 0 67.5 35t34.5 84q2 8 2 17v20 q0 68 -33.5 96.5t-78.5 26.5q-8 0 -16.5 -1.5t-14.5 -3.5q-16 -2 -31.5 -8t-29.5 -14q31 45 64.5 66.5t68.5 27.5q12 2 23.5 3t23.5 1q109 0 166 -61.5t57 -149.5v-2q0 -84 -83 -145.5t-191 -61.5q-57 0 -107.5 16.5t-81.5 51.5q-25 31 -35 56.5t-10 45.5z" />
<glyph unicode="&#xc8;" horiz-adv-x="1859" d="M4 0l328 301v762l-328 301h1788v-592l-322 354h-669v-299h370l240 170v-612l-240 170h-370v-287h649l373 381v-649h-1819zM567 1835h404l102 -434h-199z" />
<glyph unicode="&#xc9;" horiz-adv-x="1859" d="M4 0l328 301v762l-328 301h1788v-592l-322 354h-669v-299h370l240 170v-612l-240 170h-370v-287h649l373 381v-649h-1819zM922 1401l102 434h403l-307 -434h-198z" />
<glyph unicode="&#xca;" horiz-adv-x="1859" d="M4 0l328 301v762l-328 301h1788v-592l-322 354h-669v-299h370l240 170v-612l-240 170h-370v-287h649l373 381v-649h-1819zM618 1391l220 430h315l231 -430h-385l-69 276l-68 -276h-244z" />
<glyph unicode="&#xcb;" horiz-adv-x="1859" d="M4 0l328 301v762l-328 301h1788v-592l-322 354h-669v-299h370l240 170v-612l-240 170h-370v-287h649l373 381v-649h-1819zM760 1499q0 43 30.5 74t75.5 31q43 0 74 -31t31 -74t-31 -73.5t-74 -30.5q-45 0 -75.5 30.5t-30.5 73.5zM1012 1499q0 43 30.5 74t75.5 31 q43 0 74 -31t31 -74t-31 -73.5t-74 -30.5q-45 0 -75.5 30.5t-30.5 73.5z" />
<glyph unicode="&#xcc;" horiz-adv-x="1105" d="M-8 0l327 301v762l-327 301h1108l-328 -301v-762l328 -301h-1108zM145 1831h404l102 -434h-198z" />
<glyph unicode="&#xcd;" horiz-adv-x="1105" d="M-8 0l327 301v762l-327 301h1108l-328 -301v-762l328 -301h-1108zM492 1405l102 434h403l-307 -434h-198z" />
<glyph unicode="&#xce;" horiz-adv-x="1105" d="M-8 0l327 301v762l-327 301h1108l-328 -301v-762l328 -301h-1108zM193 1395l219 430h315l231 -430h-385l-69 276l-68 -276h-243z" />
<glyph unicode="&#xcf;" horiz-adv-x="1105" d="M-8 0l327 301v762l-327 301h1108l-328 -301v-762l328 -301h-1108zM313 1507q0 43 31 74t76 31q43 0 73.5 -31t30.5 -74t-30.5 -73.5t-73.5 -30.5q-45 0 -76 30.5t-31 73.5zM565 1507q0 43 31 74t76 31q43 0 73.5 -31t30.5 -74t-30.5 -73.5t-73.5 -30.5q-45 0 -76 30.5 t-31 73.5z" />
<glyph unicode="&#xd0;" horiz-adv-x="1998" d="M-6 0l328 301v762l-328 301h1251q313 0 512 -200.5t199 -481.5t-211 -481.5t-510 -200.5h-1241zM61 537v219h1016v-219h-1016zM788 268h375q133 0 191.5 126t58.5 304q0 176 -94 302t-227 126h-304v-858z" />
<glyph unicode="&#xd1;" horiz-adv-x="1988" d="M-16 0l333 313v736l-325 315h807l573 -737v422l-342 315h938l-334 -315v-1049h-477l-582 782v-469l343 -313h-934zM594 1434q0 27 10 73.5t27 98.5q10 33 22.5 63.5t28.5 56.5q29 49 77 86t111 46h4h5h2h4q10 0 21.5 -2.5t21.5 -6.5q14 -4 28 -10l29 -12q6 -4 13.5 -7 t15.5 -8q18 -8 39 -20l41 -25q31 -18 62.5 -34.5t64.5 -20.5q6 -2 12 -2h12q8 0 17.5 1t17.5 5q8 2 17.5 6t17.5 11q23 16 34 42.5t21 57.5q2 6 4 13t4 16h47q-2 -35 -7 -75t-13 -79q-23 -109 -78 -201t-174 -106h-4h-4h-4h-4q-37 0 -72 13t-70 30q-6 2 -13 6t-13 6 q-14 6 -35 18l-43 23l-34 16l-36 17q-20 6 -39.5 11t-38.5 5q-20 0 -39.5 -8t-33.5 -27q-8 -10 -11.5 -23t-5.5 -26q0 -2 -1 -4t-1 -4q0 -6 -1 -11t-3 -9h-53z" />
<glyph unicode="&#xd2;" horiz-adv-x="409" />
<glyph unicode="&#xd3;" horiz-adv-x="1767" d="M-2 651q0 305 255 533.5t613 228.5q360 0 614.5 -228.5t254.5 -533.5q0 -307 -254 -513t-615 -206q-358 0 -613 206t-255 513zM543 674q0 -217 95 -347t230 -130q133 0 228.5 129t95.5 348q0 201 -91 349t-233 148q-143 0 -234 -148t-91 -349zM803 1450l102 434h404 l-308 -434h-198z" />
<glyph unicode="&#xd4;" horiz-adv-x="1767" d="M-2 651q0 305 255 533.5t613 228.5q360 0 614.5 -228.5t254.5 -533.5q0 -307 -254 -513t-615 -206q-358 0 -613 206t-255 513zM487 1452l220 430h315l231 -430h-385l-69 277l-68 -277h-244zM543 674q0 -217 95 -347t230 -130q133 0 228.5 129t95.5 348q0 201 -91 349 t-233 148q-143 0 -234 -148t-91 -349z" />
<glyph unicode="&#xd5;" horiz-adv-x="1767" d="M-2 651q0 305 255 533.5t613 228.5q360 0 614.5 -228.5t254.5 -533.5q0 -307 -254 -513t-615 -206q-358 0 -613 206t-255 513zM504 1475q0 27 10 73.5t27 98.5q10 33 22 63.5t29 56.5q29 49 77 86t111 45h4h4h3h4q10 0 21 -2t22 -6q14 -4 28 -10l29 -12q6 -4 13 -7t16 -8 q18 -8 39 -20l41 -25q31 -18 62.5 -34.5t63.5 -20.5q6 -2 13 -2h12q8 0 17.5 1t17.5 5q8 2 17.5 6t17.5 11q23 16 34 42.5t21 57.5q2 6 4 13t4 16h47q-2 -35 -7 -75t-13 -79q-23 -109 -78 -201t-174 -106h-4h-4h-4h-4q-37 0 -72 13t-70 30q-6 2 -13 6t-13 6q-14 6 -35 17 l-43 24l-34 16l-36 17q-20 6 -39.5 11t-38.5 5q-20 0 -39.5 -8t-33.5 -27q-8 -10 -11.5 -23t-5.5 -26q0 -2 -1 -4t-1 -4q0 -6 -1 -11t-3 -9h-53zM543 674q0 -217 95 -347t230 -130q133 0 228.5 129t95.5 348q0 201 -91 349t-233 148q-143 0 -234 -148t-91 -349z" />
<glyph unicode="&#xd6;" horiz-adv-x="1767" d="M-2 651q0 305 255 533.5t613 228.5q360 0 614.5 -228.5t254.5 -533.5q0 -307 -254 -513t-615 -206q-358 0 -613 206t-255 513zM543 674q0 -217 95 -347t230 -130q133 0 228.5 129t95.5 348q0 201 -91 349t-233 148q-143 0 -234 -148t-91 -349zM641 1548q0 43 30.5 74 t76.5 31q43 0 73.5 -31t30.5 -74t-30.5 -73.5t-73.5 -30.5q-45 0 -76 30.5t-31 73.5zM893 1548q0 43 30.5 74t75.5 31q43 0 74 -31t31 -74t-31 -73.5t-74 -30.5q-45 0 -75.5 30.5t-30.5 73.5z" />
<glyph unicode="&#xd7;" />
<glyph unicode="&#xd8;" horiz-adv-x="1794" d="M4 643q0 305 256 533.5t614 228.5q152 0 288 -44t247 -122l143 123l117 -137l-123 -105q92 -100 144.5 -222t52.5 -255q0 -307 -254 -513t-615 -206q-156 0 -294 40t-250 114l-133 -113l-117 137l108 93q-86 92 -135 205.5t-49 242.5zM551 666q0 -39 3 -76t11 -72 l557 475q-45 78 -107.5 124t-137.5 46q-143 0 -234.5 -148t-91.5 -349zM633 338q45 -72 107.5 -111t136.5 -39q133 0 228 129t95 349v19v17q-2 29 -5 56.5t-9 52.5z" />
<glyph unicode="&#xd9;" horiz-adv-x="2074" d="M-2 1366q0 2 172 2h381h137q68 0 129 -2h205h82l-299 -307v-623q0 -100 94 -167.5t231 -67.5t234.5 64.5t97.5 170.5v621l-301 309h67h167q49 2 103 2h112h307q139 0 139 -2l-338 -322v-677q0 -205 -183 -319t-509 -114q-289 0 -492.5 144.5t-203.5 349.5v623zM739 1839 h404l102 -434h-198z" />
<glyph unicode="&#xda;" horiz-adv-x="2074" d="M-2 1366q0 2 172 2h381h137q68 0 129 -2h205h82l-299 -307v-623q0 -100 94 -167.5t231 -67.5t234.5 64.5t97.5 170.5v621l-301 309h67h167q49 2 103 2h112h307q139 0 139 -2l-338 -322v-677q0 -205 -183 -319t-509 -114q-289 0 -492.5 144.5t-203.5 349.5v623zM1020 1405 l102 434h404l-307 -434h-199z" />
<glyph unicode="&#xdb;" horiz-adv-x="2074" d="M-2 1366q0 2 172 2h381h137q68 0 129 -2h205h82l-299 -307v-623q0 -100 94 -167.5t231 -67.5t234.5 64.5t97.5 170.5v621l-301 309h67h167q49 2 103 2h112h307q139 0 139 -2l-338 -322v-677q0 -205 -183 -319t-509 -114q-289 0 -492.5 144.5t-203.5 349.5v623zM700 1399 l220 430h315l231 -430h-385l-69 276l-68 -276h-244z" />
<glyph unicode="&#xdc;" horiz-adv-x="2074" d="M-2 1366q0 2 172 2h381h137q68 0 129 -2h205h82l-299 -307v-623q0 -100 94 -167.5t231 -67.5t234.5 64.5t97.5 170.5v621l-301 309h67h167q49 2 103 2h112h307q139 0 139 -2l-338 -322v-677q0 -205 -183 -319t-509 -114q-289 0 -492.5 144.5t-203.5 349.5v623zM825 1511 q0 43 31 74t76 31q43 0 73.5 -31t30.5 -74t-30.5 -73.5t-73.5 -30.5q-45 0 -76 30.5t-31 73.5zM1077 1511q0 43 31 74t76 31q43 0 73.5 -31t30.5 -74t-30.5 -73.5t-73.5 -30.5q-45 0 -76 30.5t-31 73.5z" />
<glyph unicode="&#xdd;" horiz-adv-x="409" />
<glyph unicode="&#xde;" horiz-adv-x="1648" d="M8 1368h1116l-250 -240h218q201 0 351 -120.5t165 -290.5v-8q0 -4 2 -9v-8v-8q-2 -160 -130 -270.5t-317 -110.5h-364l319 -303h-1106l328 317v725zM786 539h236q66 0 97.5 52t31.5 126q0 72 -35 125t-84 51h-246v-354z" />
<glyph unicode="&#xdf;" horiz-adv-x="1480" d="M0 0l227 227v828q0 182 158 280.5t381 98.5t381 -88.5t158 -239.5q0 -125 -99.5 -198.5t-255.5 -108.5h22h11q188 0 319.5 -126t131.5 -302t-131.5 -296t-319.5 -120q-80 0 -146.5 11t-113.5 48q-12 10 -21.5 19.5t-17.5 19.5q-25 29 -35 57.5t-10 55.5q0 31 11.5 57.5 t31.5 46.5q25 27 59.5 43.5t69.5 22.5q12 0 23.5 1t23.5 1h9h10q10 -2 19 -3t17 -3q-4 -16 -7 -33.5t-5 -38.5q-2 -66 18.5 -114t53.5 -48q43 0 60.5 45t23.5 101q4 31 4 61v51v8v5q0 141 -66.5 235t-175.5 94h-137v105q129 0 187.5 56t66.5 188q6 94 -44 161.5t-130 67.5 q-96 0 -135 -63.5t-39 -165.5v-1047h-588z" />
<glyph unicode="&#xe0;" horiz-adv-x="1314" d="M6 188q0 139 86 217t238 111l391 84v96q0 49 -49 74t-113 25h-3h-3q-63 -2 -117.5 -31t-54.5 -82q0 -8 1 -17.5t1 -19.5q2 -12 7 -24.5t11 -22.5q-10 -2 -20 -5t-23 -5q-20 -6 -44.5 -11.5t-47.5 -9.5t-43 -6t-41 -2q-63 0 -107 29.5t-44 109.5v18q0 9 2 17 q14 119 158.5 183.5t314.5 78.5q29 4 57.5 5t54.5 1q219 -2 352.5 -72.5t133.5 -191.5v-456q0 -72 17.5 -103t37.5 -31q31 0 43 36t12 79v3v3q0 29 -4 53.5t-10 36.5q53 -14 78 -53t27 -129q0 -100 -74 -162.5t-207 -62.5q-127 0 -197.5 58.5t-78.5 148.5q-2 -2 -3.5 -5 t-3.5 -8q-35 -74 -130 -134t-263 -60q-152 0 -247 57t-95 180zM203 1475h403l103 -435h-199zM385 262q0 -55 38 -82.5t85 -27.5q12 0 24.5 2t24.5 6q14 4 29.5 10t29.5 14q41 23 75 62t34 102v90l-178 -39q-72 -14 -117 -45t-45 -92z" />
<glyph unicode="&#xe1;" horiz-adv-x="1314" d="M6 188q0 139 86 217t238 111l391 84v96q0 49 -49 74t-113 25h-3h-3q-63 -2 -117.5 -31t-54.5 -82q0 -8 1 -17.5t1 -19.5q2 -12 7 -24.5t11 -22.5q-10 -2 -20 -5t-23 -5q-20 -6 -44.5 -11.5t-47.5 -9.5t-43 -6t-41 -2q-63 0 -107 29.5t-44 109.5v18q0 9 2 17 q14 119 158.5 183.5t314.5 78.5q29 4 57.5 5t54.5 1q219 -2 352.5 -72.5t133.5 -191.5v-456q0 -72 17.5 -103t37.5 -31q31 0 43 36t12 79v3v3q0 29 -4 53.5t-10 36.5q53 -14 78 -53t27 -129q0 -100 -74 -162.5t-207 -62.5q-127 0 -197.5 58.5t-78.5 148.5q-2 -2 -3.5 -5 t-3.5 -8q-35 -74 -130 -134t-263 -60q-152 0 -247 57t-95 180zM385 262q0 -55 38 -82.5t85 -27.5q12 0 24.5 2t24.5 6q14 4 29.5 10t29.5 14q41 23 75 62t34 102v90l-178 -39q-72 -14 -117 -45t-45 -92zM520 1040l103 435h403l-307 -435h-199z" />
<glyph unicode="&#xe2;" horiz-adv-x="1314" d="M6 188q0 139 86 217t238 111l391 84v96q0 49 -49 74t-113 25h-3h-3q-63 -2 -117.5 -31t-54.5 -82q0 -8 1 -17.5t1 -19.5q2 -12 7 -24.5t11 -22.5q-10 -2 -20 -5t-23 -5q-20 -6 -44.5 -11.5t-47.5 -9.5t-43 -6t-41 -2q-63 0 -107 29.5t-44 109.5v18q0 9 2 17 q14 119 158.5 183.5t314.5 78.5q29 4 57.5 5t54.5 1q219 -2 352.5 -72.5t133.5 -191.5v-456q0 -72 17.5 -103t37.5 -31q31 0 43 36t12 79v3v3q0 29 -4 53.5t-10 36.5q53 -14 78 -53t27 -129q0 -100 -74 -162.5t-207 -62.5q-127 0 -197.5 58.5t-78.5 148.5q-2 -2 -3.5 -5 t-3.5 -8q-35 -74 -130 -134t-263 -60q-152 0 -247 57t-95 180zM279 1034l219 430h315l231 -430h-385l-69 277l-68 -277h-243zM385 262q0 -55 38 -82.5t85 -27.5q12 0 24.5 2t24.5 6q14 4 29.5 10t29.5 14q41 23 75 62t34 102v90l-178 -39q-72 -14 -117 -45t-45 -92z" />
<glyph unicode="&#xe3;" horiz-adv-x="1314" d="M6 188q0 139 86 217t238 111l391 84v96q0 49 -49 74t-113 25h-3h-3q-63 -2 -117.5 -31t-54.5 -82q0 -8 1 -17.5t1 -19.5q2 -12 7 -24.5t11 -22.5q-10 -2 -20 -5t-23 -5q-20 -6 -44.5 -11.5t-47.5 -9.5t-43 -6t-41 -2q-63 0 -107 29.5t-44 109.5v18q0 9 2 17 q14 119 158.5 183.5t314.5 78.5q29 4 57.5 5t54.5 1q219 -2 352.5 -72.5t133.5 -191.5v-456q0 -72 17.5 -103t37.5 -31q31 0 43 36t12 79v3v3q0 29 -4 53.5t-10 36.5q53 -14 78 -53t27 -129q0 -100 -74 -162.5t-207 -62.5q-127 0 -197.5 58.5t-78.5 148.5q-2 -2 -3.5 -5 t-3.5 -8q-35 -74 -130 -134t-263 -60q-152 0 -247 57t-95 180zM254 1077q0 27 10 74t27 98q10 33 22.5 63.5t28.5 57.5q29 49 77 86t111 45h5h4h2h4q10 0 21.5 -2t21.5 -6q14 -4 28 -10l29 -13q6 -4 13.5 -7t15.5 -7q18 -8 39 -20l41 -25q31 -18 62.5 -34.5t64.5 -20.5 q6 -2 12 -2h12q8 0 17.5 1t17.5 5q8 2 17.5 6t17.5 10q23 16 34 43t21 58q2 6 4 13t4 15h47q-2 -35 -7 -74.5t-13 -78.5q-23 -109 -78 -201t-174 -107h-4h-4h-4h-4q-37 0 -72 13.5t-70 29.5q-6 2 -13 6.5t-13 6.5q-14 6 -35 17l-43 24l-34 16l-36 17q-20 6 -39.5 11t-38.5 5 q-20 0 -39.5 -8t-33.5 -27q-8 -10 -11.5 -23.5t-5.5 -25.5q0 -2 -1 -4t-1 -4q0 -6 -1 -11.5t-3 -9.5h-53zM385 262q0 -55 38 -82.5t85 -27.5q12 0 24.5 2t24.5 6q14 4 29.5 10t29.5 14q41 23 75 62t34 102v90l-178 -39q-72 -14 -117 -45t-45 -92z" />
<glyph unicode="&#xe4;" horiz-adv-x="1314" d="M6 188q0 139 86 217t238 111l391 84v96q0 49 -49 74t-113 25h-3h-3q-63 -2 -117.5 -31t-54.5 -82q0 -8 1 -17.5t1 -19.5q2 -12 7 -24.5t11 -22.5q-10 -2 -20 -5t-23 -5q-20 -6 -44.5 -11.5t-47.5 -9.5t-43 -6t-41 -2q-63 0 -107 29.5t-44 109.5v18q0 9 2 17 q14 119 158.5 183.5t314.5 78.5q29 4 57.5 5t54.5 1q219 -2 352.5 -72.5t133.5 -191.5v-456q0 -72 17.5 -103t37.5 -31q31 0 43 36t12 79v3v3q0 29 -4 53.5t-10 36.5q53 -14 78 -53t27 -129q0 -100 -74 -162.5t-207 -62.5q-127 0 -197.5 58.5t-78.5 148.5q-2 -2 -3.5 -5 t-3.5 -8q-35 -74 -130 -134t-263 -60q-152 0 -247 57t-95 180zM362 1143q0 43 31 73.5t76 30.5q43 0 73.5 -30.5t30.5 -73.5t-30.5 -74t-73.5 -31q-45 0 -76 31t-31 74zM385 262q0 -55 38 -82.5t85 -27.5q12 0 24.5 2t24.5 6q14 4 29.5 10t29.5 14q41 23 75 62t34 102v90 l-178 -39q-72 -14 -117 -45t-45 -92zM614 1143q0 43 31 73.5t76 30.5q43 0 73.5 -30.5t30.5 -73.5t-30.5 -74t-73.5 -31q-45 0 -76 31t-31 74z" />
<glyph unicode="&#xe5;" horiz-adv-x="1314" d="M6 188q0 139 86 217t238 111l391 84v96q0 49 -49 74t-113 25h-3h-3q-63 -2 -117.5 -31t-54.5 -82q0 -8 1 -17.5t1 -19.5q2 -12 7 -24.5t11 -22.5q-10 -2 -20 -5t-23 -5q-20 -6 -44.5 -11.5t-47.5 -9.5t-43 -6t-41 -2q-63 0 -107 29.5t-44 109.5v18q0 9 2 17 q14 119 158.5 183.5t314.5 78.5q29 4 57.5 5t54.5 1q219 -2 352.5 -72.5t133.5 -191.5v-456q0 -72 17.5 -103t37.5 -31q31 0 43 36t12 79v3v3q0 29 -4 53.5t-10 36.5q53 -14 78 -53t27 -129q0 -100 -74 -162.5t-207 -62.5q-127 0 -197.5 58.5t-78.5 148.5q-2 -2 -3.5 -5 t-3.5 -8q-35 -74 -130 -134t-263 -60q-152 0 -247 57t-95 180zM385 262q0 -55 38 -82.5t85 -27.5q12 0 24.5 2t24.5 6q14 4 29.5 10t29.5 14q41 23 75 62t34 102v90l-178 -39q-72 -14 -117 -45t-45 -92zM465 1182q0 61 44 105t105 44q63 0 107.5 -44t44.5 -105 q0 -63 -44 -107.5t-108 -44.5q-61 0 -105 44.5t-44 107.5zM567 1182q0 -20 13.5 -34.5t33.5 -14.5t35 14t15 34.5t-14.5 34t-35.5 13.5q-20 0 -33.5 -13.5t-13.5 -33.5z" />
<glyph unicode="&#xe6;" horiz-adv-x="1900" d="M4 176q0 139 86 218t238 112l391 82v96q0 49 -50.5 73.5t-111.5 24.5h-3h-3q-63 -2 -117.5 -29.5t-54.5 -80.5q0 -10 1 -21.5t3 -21.5t6 -21.5t10 -21.5q-10 -2 -20 -5t-23 -6q-23 -6 -49 -12t-53 -10l-38 -4q-19 -2 -38 -2q-63 0 -106 28.5t-43 108.5v19q0 9 2 18 q14 119 158.5 183.5t314.5 78.5q29 4 57.5 5t54.5 1q117 0 212.5 -20.5t158.5 -59.5q70 41 151 63.5t167 22.5q244 0 395 -174t158 -405h-721q0 -139 73.5 -202.5t266.5 -63.5q23 0 45 1t45 5q29 4 58.5 10t57.5 14q59 20 103.5 59.5t68.5 84.5q4 -8 6.5 -18.5l4.5 -18.5 q0 -10 1 -19.5t1 -19.5q0 -88 -64.5 -162t-167.5 -106l-13 -4.5l-13 -4.5q-68 -18 -136.5 -24t-148.5 -6q-176 0 -308 63.5t-208 173.5q-8 -10 -16.5 -22.5t-18.5 -24.5l-11 -15q-5 -7 -13 -14q-53 -61 -150.5 -111t-253.5 -50q-154 0 -248 56t-94 179zM383 250 q0 -57 39 -84t86 -25h12q6 0 12 2q4 0 10.5 1t12.5 3q14 4 29.5 10.5t29.5 14.5q41 23 75 61.5t34 102.5v90l-178 -37q-72 -16 -117 -46t-45 -93zM1139 582h393q2 115 -59.5 170t-135.5 55q-76 0 -138 -56t-60 -169z" />
<glyph unicode="&#xe7;" horiz-adv-x="1193" d="M8 477q6 221 202 372.5t449 151.5q31 0 63 -3t64 -9q127 -23 232.5 -92.5t105.5 -181.5q0 -74 -53 -120t-131 -46q-29 0 -55.5 6t-48.5 20q4 18 6 36t2 32q0 88 -54.5 130t-140.5 42q-94 0 -162.5 -73.5t-66.5 -254.5q2 -188 69.5 -249.5t155.5 -73.5q16 -2 33.5 -3 t38.5 -1q27 0 54.5 3t55.5 9q51 10 99.5 33.5t85.5 66.5q39 45 49 98.5t10 110.5q31 -33 47.5 -73.5t20.5 -81.5v-13v-12q-2 -53 -19.5 -102t-46.5 -82q-23 -27 -49.5 -50.5t-60.5 -41.5q-72 -39 -158 -59.5t-197 -20.5q-254 0 -431 155.5t-169 376.5zM330 -272 q0 35 24.5 55t53.5 18q12 0 24 -3t23 -11l-4 -20l-5 -21q-2 -49 19.5 -84t69.5 -35q39 0 67.5 35t34.5 84q2 8 2 17v20q0 68 -34 96.5t-79 26.5q-8 0 -16 -1t-14 -3q-16 -2 -31.5 -8.5t-30.5 -14.5q31 45 64.5 66.5t68.5 27.5q12 2 23.5 3t23.5 1q109 0 166.5 -61t57.5 -149 v-3q0 -84 -83 -145t-192 -61q-57 0 -107 16t-81 51q-25 31 -35 57t-10 46z" />
<glyph unicode="&#xe8;" horiz-adv-x="1183" d="M12 467q0 238 173 386t403 148q246 0 396.5 -174t158.5 -407h-723q0 -139 73.5 -202.5t268.5 -63.5q25 0 50.5 2t51.5 6q27 4 52.5 10t50.5 14q59 18 104 57.5t70 84.5q6 -18 9 -37t3 -37q0 -88 -65.5 -162t-167.5 -106q-72 -23 -147 -32t-165 -9q-270 0 -433 146.5 t-163 375.5zM186 1479h404l102 -435h-198zM422 588h395q2 115 -59.5 170t-136.5 55q-76 0 -138.5 -56t-60.5 -169z" />
<glyph unicode="&#xe9;" horiz-adv-x="1183" d="M12 467q0 238 173 386t403 148q246 0 396.5 -174t158.5 -407h-723q0 -139 73.5 -202.5t268.5 -63.5q25 0 50.5 2t51.5 6q27 4 52.5 10t50.5 14q59 18 104 57.5t70 84.5q6 -18 9 -37t3 -37q0 -88 -65.5 -162t-167.5 -106q-72 -23 -147 -32t-165 -9q-270 0 -433 146.5 t-163 375.5zM422 588h395q2 115 -59.5 170t-136.5 55q-76 0 -138.5 -56t-60.5 -169zM512 1040l102 435h404l-307 -435h-199z" />
<glyph unicode="&#xea;" horiz-adv-x="1183" d="M12 467q0 238 173 386t403 148q246 0 396.5 -174t158.5 -407h-723q0 -139 73.5 -202.5t268.5 -63.5q25 0 50.5 2t51.5 6q27 4 52.5 10t50.5 14q59 18 104 57.5t70 84.5q6 -18 9 -37t3 -37q0 -88 -65.5 -162t-167.5 -106q-72 -23 -147 -32t-165 -9q-270 0 -433 146.5 t-163 375.5zM250 1034l219 430h315l232 -430h-385l-70 277l-67 -277h-244zM422 588h395q2 115 -59.5 170t-136.5 55q-76 0 -138.5 -56t-60.5 -169z" />
<glyph unicode="&#xeb;" horiz-adv-x="1183" d="M12 467q0 238 173 386t403 148q246 0 396.5 -174t158.5 -407h-723q0 -139 73.5 -202.5t268.5 -63.5q25 0 50.5 2t51.5 6q27 4 52.5 10t50.5 14q59 18 104 57.5t70 84.5q6 -18 9 -37t3 -37q0 -88 -65.5 -162t-167.5 -106q-72 -23 -147 -32t-165 -9q-270 0 -433 146.5 t-163 375.5zM350 1143q0 43 31 73.5t76 30.5q43 0 73.5 -30.5t30.5 -73.5t-30.5 -74t-73.5 -31q-45 0 -76 31t-31 74zM422 588h395q2 115 -59.5 170t-136.5 55q-76 0 -138.5 -56t-60.5 -169zM602 1143q0 43 31 73.5t76 30.5q43 0 73.5 -30.5t30.5 -73.5t-30.5 -74t-73.5 -31 q-45 0 -76 31t-31 74z" />
<glyph unicode="&#xec;" horiz-adv-x="919" d="M-6 1466h403l103 -434h-199zM-4 979h666v-733l245 -246h-880l252 246v459z" />
<glyph unicode="&#xed;" horiz-adv-x="919" d="M-4 979h666v-733l245 -246h-880l252 246v459zM332 1020l102 434h404l-308 -434h-198z" />
<glyph unicode="&#xee;" horiz-adv-x="919" d="M-16 1018l219 430h315l232 -430h-385l-70 276l-68 -276h-243zM-4 979h666v-733l245 -246h-880l252 246v459z" />
<glyph unicode="&#xef;" horiz-adv-x="919" d="M-4 979h666v-733l245 -246h-880l252 246v459zM137 1126q0 43 31 74t76 31q43 0 73.5 -31t30.5 -74t-30.5 -73.5t-73.5 -30.5q-45 0 -76 30.5t-31 73.5zM389 1126q0 43 31 74t76 31q43 0 73.5 -31t30.5 -74t-30.5 -73.5t-73.5 -30.5q-45 0 -76 30.5t-31 73.5z" />
<glyph unicode="&#xf0;" horiz-adv-x="1316" d="M0 477q0 209 170 362.5t416 170.5q-39 31 -82 59.5t-90 54.5l-252 -145l-66 113l178 100q-51 23 -104 42t-111 34l68 125q96 -12 187.5 -31t174.5 -45l295 170l66 -113l-201 -114q285 -117 456 -312.5t171 -462.5q0 -240 -183.5 -382t-404.5 -156q-12 -2 -24 -2h-25 q-264 0 -451.5 155.5t-187.5 376.5zM412 481q0 -137 63.5 -234t161.5 -97q96 0 160.5 97t64.5 234q0 139 -64.5 235.5t-160.5 96.5q-98 0 -161.5 -96.5t-63.5 -235.5z" />
<glyph unicode="&#xf1;" horiz-adv-x="1679" d="M4 979h666v-244q53 111 132 188.5t234 77.5q156 0 261.5 -81.5t105.5 -204.5v-463l252 -252h-789l156 207v381q0 61 -44 105t-108 44q-82 0 -127 -69.5t-71 -151.5q0 -2 -1 -3t-1 -3v-305l161 -205h-796l252 246v459zM410 1085q0 27 10 74t26 98q10 33 22.5 64t29.5 57 q29 49 77 86t111 45h4h4h2h4q10 0 21.5 -2t21.5 -6q14 -4 29 -10l29 -12q6 -4 13 -7.5l15 -7.5q18 -8 39 -20l41 -25q31 -18 63 -34.5t64 -20.5q6 -2 13 -2h12q8 0 17 1t18 5q8 2 17 6t17 10q23 16 34.5 43t21.5 58q2 6 4 13t4 15h47q-2 -35 -7 -74.5t-13 -78.5 q-23 -109 -78.5 -201t-173.5 -106h-4h-4h-5h-4q-37 0 -71.5 13t-69.5 30q-6 2 -13 6t-14 6q-14 6 -34 17l-43 24l-34 16l-36 17q-20 6 -39.5 11t-38.5 5q-20 0 -39.5 -8t-34.5 -27q-8 -10 -11 -23.5t-5 -25.5q0 -2 -1 -4t-1 -4q0 -6 -1 -11t-3 -10h-53z" />
<glyph unicode="&#xf2;" horiz-adv-x="1302" d="M0 477q0 221 186.5 378t446.5 157q262 0 448.5 -157t186.5 -378t-186.5 -376.5t-448.5 -155.5q-260 0 -446.5 155.5t-186.5 376.5zM231 1491h404l102 -434h-198zM406 479q0 -137 58 -236.5t167 -99.5t166 99.5t57 236.5q0 139 -61.5 237.5t-161.5 98.5t-162.5 -98.5 t-62.5 -237.5z" />
<glyph unicode="&#xf3;" horiz-adv-x="1302" d="M0 477q0 221 186.5 378t446.5 157q262 0 448.5 -157t186.5 -378t-186.5 -376.5t-448.5 -155.5q-260 0 -446.5 155.5t-186.5 376.5zM406 479q0 -137 58 -236.5t167 -99.5t166 99.5t57 236.5q0 139 -61.5 237.5t-161.5 98.5t-162.5 -98.5t-62.5 -237.5zM541 1053l102 434 h404l-308 -434h-198z" />
<glyph unicode="&#xf4;" horiz-adv-x="1302" d="M0 477q0 221 186.5 378t446.5 157q262 0 448.5 -157t186.5 -378t-186.5 -376.5t-448.5 -155.5q-260 0 -446.5 155.5t-186.5 376.5zM258 1055l219 430h316l231 -430h-385l-70 276l-67 -276h-244zM406 479q0 -137 58 -236.5t167 -99.5t166 99.5t57 236.5q0 139 -61.5 237.5 t-161.5 98.5t-162.5 -98.5t-62.5 -237.5z" />
<glyph unicode="&#xf5;" horiz-adv-x="1302" d="M0 477q0 221 186.5 378t446.5 157q262 0 448.5 -157t186.5 -378t-186.5 -376.5t-448.5 -155.5q-260 0 -446.5 155.5t-186.5 376.5zM270 1081q0 27 10.5 74t26.5 98q10 33 22.5 64t28.5 57q29 49 77 86t112 45h4h4h2h4q10 0 21.5 -2t21.5 -6q14 -4 29 -10l29 -12 q6 -4 13 -7.5l15 -7.5q18 -8 39 -20l41 -25q31 -18 62.5 -34.5t64.5 -20.5q6 -2 12 -2h13q8 0 17 1t17 5q8 2 17.5 6t17.5 10q23 16 34 43t22 58q2 6 4 13t4 15h47q-2 -35 -7 -74.5t-14 -78.5q-23 -109 -78 -201t-174 -106h-4h-4h-4h-4q-37 0 -71.5 13t-69.5 30 q-6 2 -13.5 6t-13.5 6q-14 6 -35 17l-43 24l-33 16l-36 17q-20 6 -40 11t-38 5q-20 0 -40 -8t-34 -27q-8 -10 -11 -23.5t-5 -25.5q0 -2 -1 -4t-1 -4q0 -6 -1 -11.5t-3 -9.5h-54zM406 479q0 -137 58 -236.5t167 -99.5t166 99.5t57 236.5q0 139 -61.5 237.5t-161.5 98.5 t-162.5 -98.5t-62.5 -237.5z" />
<glyph unicode="&#xf6;" horiz-adv-x="1302" d="M0 477q0 221 186.5 378t446.5 157q262 0 448.5 -157t186.5 -378t-186.5 -376.5t-448.5 -155.5q-260 0 -446.5 155.5t-186.5 376.5zM383 1155q0 43 30.5 74t75.5 31q43 0 74 -31t31 -74t-31 -73.5t-74 -30.5q-45 0 -75.5 30.5t-30.5 73.5zM406 479q0 -137 58 -236.5 t167 -99.5t166 99.5t57 236.5q0 139 -61.5 237.5t-161.5 98.5t-162.5 -98.5t-62.5 -237.5zM635 1155q0 43 30.5 74t75.5 31q43 0 74 -31t31 -74t-31 -73.5t-74 -30.5q-45 0 -75.5 30.5t-30.5 73.5z" />
<glyph unicode="&#xf7;" />
<glyph unicode="&#xf8;" horiz-adv-x="1310" d="M4 471q0 221 186.5 378t446.5 157q109 0 206 -29t177 -80l78 68l100 -119l-59 -49q63 -68 98 -151t35 -175q0 -219 -186.5 -374.5t-448.5 -155.5q-106 0 -204.5 28.5t-176.5 77.5l-80 -67l-98 118l57 49q-61 68 -96 151t-35 173zM410 452q0 -11 2 -22q0 -12 1 -23.5 t3 -21.5l381 324q-29 47 -70 73.5t-92 26.5q-100 0 -162.5 -98.5t-62.5 -237.5v-21zM473 231q29 -43 70 -67.5t92 -24.5q109 0 166 98.5t57 235.5q0 23 -1 42.5t-5 37.5z" />
<glyph unicode="&#xf9;" horiz-adv-x="1660" d="M0 979h635l-2 -619q0 -61 45 -105t108 -44q84 0 128 70.5t71 156.5v289l-274 252h659v-705l281 -274h-666v211q-51 -109 -129 -185.5t-235 -76.5q-156 0 -261.5 81t-105.5 203v494zM301 1454h404l102 -434h-199z" />
<glyph unicode="&#xfa;" horiz-adv-x="1660" d="M0 979h635l-2 -619q0 -61 45 -105t108 -44q84 0 128 70.5t71 156.5v289l-274 252h659v-705l281 -274h-666v211q-51 -109 -129 -185.5t-235 -76.5q-156 0 -261.5 81t-105.5 203v494zM610 1020l103 434h403l-307 -434h-199z" />
<glyph unicode="&#xfb;" horiz-adv-x="1660" d="M0 979h635l-2 -619q0 -61 45 -105t108 -44q84 0 128 70.5t71 156.5v289l-274 252h659v-705l281 -274h-666v211q-51 -109 -129 -185.5t-235 -76.5q-156 0 -261.5 81t-105.5 203v494zM336 1018l219 430h315l232 -430h-385l-70 276l-67 -276h-244z" />
<glyph unicode="&#xfc;" horiz-adv-x="1660" d="M0 979h635l-2 -619q0 -61 45 -105t108 -44q84 0 128 70.5t71 156.5v289l-274 252h659v-705l281 -274h-666v211q-51 -109 -129 -185.5t-235 -76.5q-156 0 -261.5 81t-105.5 203v494zM444 1118q0 43 31 74t76 31q43 0 73.5 -31t30.5 -74t-30.5 -73.5t-73.5 -30.5 q-45 0 -76 30.5t-31 73.5zM696 1118q0 43 31 74t76 31q43 0 73.5 -31t30.5 -74t-30.5 -73.5t-73.5 -30.5q-45 0 -76 30.5t-31 73.5z" />
<glyph unicode="&#xfd;" horiz-adv-x="409" />
<glyph unicode="&#xfe;" horiz-adv-x="1511" d="M2 1364h682v-580q41 100 123 161t184 61h11h12q170 -8 311 -142.5t141 -392.5q0 -213 -141 -360.5t-311 -159.5h-12h-11q-104 0 -182 61.5t-125 159.5v-360l301 -244q-236 2 -472 2h-474l262 242v1286zM702 475q0 -147 51.5 -233t129.5 -86q96 0 143 94t47 225 q0 172 -54 245t-132 75q-70 2 -127.5 -84t-57.5 -236z" />
<glyph unicode="&#xff;" horiz-adv-x="1636" d="M-4 979h909l-162 -217l230 -391l145 377l-178 231h686l-248 -246l-313 -842q-63 -164 -161.5 -257t-287.5 -93q-150 0 -255 67.5t-105 164.5q0 90 79 153.5t191 63.5q14 0 29.5 -1t32.5 -5q8 0 15 -2t15 -5q-2 -2 -3 -6t-1 -6q-6 -18 -11 -43.5t-7 -52.5v-11v-10 q2 -37 13.5 -67.5t39.5 -38.5q4 -2 9 -2h8q41 0 69.5 43t42.5 96q6 16 10.5 32.5t6.5 31.5l-492 790zM637 1126q0 43 30.5 74t75.5 31q43 0 74 -31t31 -74t-31 -73.5t-74 -30.5q-45 0 -75.5 30.5t-30.5 73.5zM889 1126q0 43 30.5 74t75.5 31q43 0 74 -31t31 -74t-31 -73.5 t-74 -30.5q-45 0 -75.5 30.5t-30.5 73.5z" />
<glyph unicode="&#x152;" horiz-adv-x="2654" d="M2 645q0 307 256 534.5t614 227.5q74 0 146 -10.5t139 -32.5h1405v-592l-321 354h-558v-299h259l239 170v-612l-239 170h-259v-287h537l373 381v-649h-1331q-88 -33 -186.5 -53.5t-203.5 -20.5q-358 0 -614 207t-256 512zM549 668q0 -217 95 -347.5t228 -130.5 q135 0 230.5 130.5t95.5 347.5q0 201 -91 349t-235 148q-141 0 -232 -148t-91 -349z" />
<glyph unicode="&#x153;" horiz-adv-x="2052" d="M0 471q0 221 186.5 378t446.5 157q125 0 235.5 -38t194.5 -104q78 63 177 97t206 34q244 0 395.5 -174t157.5 -405h-721q0 -139 73.5 -202.5t268.5 -63.5q25 0 50.5 2t51.5 6q27 4 52.5 9t50.5 13q59 20 103 59.5t71 84.5q6 -18 9 -37t3 -37q0 -88 -65.5 -163 t-167.5 -107l-13.5 -4.5l-13.5 -4.5q-68 -18 -136.5 -24t-148.5 -6q-127 0 -232.5 32.5t-182.5 96.5q-84 -61 -190.5 -95t-227.5 -34q-260 0 -446.5 155.5t-186.5 374.5zM406 473q0 -137 58 -235.5t167 -98.5t166 98.5t57 235.5q0 139 -61.5 237.5t-161.5 98.5t-162.5 -98.5 t-62.5 -237.5zM1280 582h393q2 115 -59.5 170t-134.5 55q-76 0 -138.5 -56t-60.5 -169z" />
<glyph unicode="&#x178;" horiz-adv-x="1931" d="M-2 1366h1075l-219 -238l248 -340l241 351l-233 227h823l-299 -268l-428 -609v-174l344 -313h-1132l332 313v183l-449 630zM829 1501q0 43 31 74t76 31q43 0 73.5 -31t30.5 -74t-30.5 -73.5t-73.5 -30.5q-45 0 -76 30.5t-31 73.5zM1081 1501q0 43 31 74t76 31 q43 0 73.5 -31t30.5 -74t-30.5 -73.5t-73.5 -30.5q-45 0 -76 30.5t-31 73.5z" />
<glyph unicode="&#x2c6;" horiz-adv-x="913" d="M41 1311q0 27 10 74t27 98q10 33 22.5 63.5t28.5 57.5q29 49 77 85.5t111 45.5h5h4h2h4q10 0 21.5 -2t21.5 -7q14 -4 28 -10l29 -12q6 -4 13.5 -7t15.5 -7q18 -8 39 -21l41 -24l62.5 -35t64.5 -21q6 -2 12 -2h12q8 0 17.5 1t17.5 5q8 2 17.5 6.5t17.5 10.5q23 16 34 42.5 t21 57.5q2 6 4 13.5l4 15.5h47q-2 -35 -7 -75t-13 -79q-23 -109 -78 -201t-174 -106h-4h-4h-4h-4q-37 0 -72 13.5t-70 29.5q-6 2 -13 6t-13 6q-14 6 -35 18l-43 23l-34 17l-36 16q-20 6 -39.5 11t-38.5 5q-20 0 -39.5 -8t-33.5 -26q-8 -10 -11.5 -23.5t-5.5 -26.5 q0 -2 -1 -4t-1 -4q0 -6 -1 -11t-3 -9h-53z" />
<glyph unicode="&#x2dc;" horiz-adv-x="913" d="M74 1366l219 430h315l232 -430h-385l-70 276l-68 -276h-243z" />
<glyph unicode="&#x2000;" horiz-adv-x="950" />
<glyph unicode="&#x2001;" horiz-adv-x="1902" />
<glyph unicode="&#x2002;" horiz-adv-x="950" />
<glyph unicode="&#x2003;" horiz-adv-x="1902" />
<glyph unicode="&#x2004;" horiz-adv-x="632" />
<glyph unicode="&#x2005;" horiz-adv-x="475" />
<glyph unicode="&#x2006;" horiz-adv-x="315" />
<glyph unicode="&#x2007;" horiz-adv-x="315" />
<glyph unicode="&#x2008;" horiz-adv-x="237" />
<glyph unicode="&#x2009;" horiz-adv-x="378" />
<glyph unicode="&#x200a;" horiz-adv-x="104" />
<glyph unicode="&#x2010;" horiz-adv-x="667" d="M31 313v326h608v-326h-608z" />
<glyph unicode="&#x2011;" horiz-adv-x="667" d="M31 313v326h608v-326h-608z" />
<glyph unicode="&#x2012;" horiz-adv-x="667" d="M31 313v326h608v-326h-608z" />
<glyph unicode="&#x2013;" horiz-adv-x="1114" d="M51 313v326h1016v-326h-1016z" />
<glyph unicode="&#x2014;" horiz-adv-x="1226" d="M14 313v326h1217v-326h-1217z" />
<glyph unicode="&#x2018;" horiz-adv-x="466" d="M49 1120v17q0 8 2 16q10 125 100.5 231.5t258.5 126.5q-2 -8 -3 -17t-4 -19q-92 -59 -136 -118t-60 -118q8 2 17 3t18 1q74 0 128 -55t54 -133q0 -80 -54.5 -135.5t-127.5 -55.5q-74 0 -120 47t-61 115q-2 12 -5 23.5t-3 23.5q-2 12 -3 23.5t-1 23.5z" />
<glyph unicode="&#x2019;" horiz-adv-x="466" d="M51 1321q0 80 54.5 135t127.5 55q74 0 120 -47t61 -114q4 -12 6 -24l4 -23q0 -12 1 -23.5t1 -24.5v-16q0 -8 -2 -16q-10 -125 -100.5 -231.5t-257.5 -127.5q2 10 3 19.5t3 17.5q92 59 137 118.5t59 117.5q-8 -2 -16 -3t-19 -1q-74 0 -128 55t-54 133z" />
<glyph unicode="&#x201a;" horiz-adv-x="466" d="M51 195q0 80 54.5 135t127.5 55q74 0 120 -47t61 -115q4 -12 6 -23l4 -24q0 -12 1 -23.5t1 -23.5v-16q0 -8 -2 -17q-10 -123 -100.5 -229.5t-257.5 -126.5q2 8 3 17.5t3 19.5q92 59 137 117.5t59 115.5q-8 -2 -16 -3t-19 -1q-74 0 -128 55.5t-54 133.5z" />
<glyph unicode="&#x201c;" horiz-adv-x="843" d="M49 1120v17q0 8 2 16q10 125 100.5 231.5t258.5 126.5q-2 -8 -3 -17t-4 -19q-92 -59 -136 -118t-60 -118q8 2 17 3t18 1q74 0 128 -55t54 -133q0 -80 -54.5 -135.5t-127.5 -55.5q-74 0 -120 47t-61 115q-2 12 -5 23.5t-3 23.5q-2 12 -3 23.5t-1 23.5zM438 1120v17 q0 8 2 16q10 125 100.5 231.5t258.5 126.5q-2 -8 -3 -17t-3 -19q-92 -59 -136.5 -118t-60.5 -118q8 2 17.5 3t17.5 1q74 0 128 -55t54 -133q0 -80 -54 -135.5t-128 -55.5t-120 47t-60 115q-2 12 -5.5 23.5t-3.5 23.5q-2 12 -3 23.5t-1 23.5z" />
<glyph unicode="&#x201d;" horiz-adv-x="843" d="M51 1321q0 80 54.5 135t127.5 55q74 0 120 -47t61 -114q4 -12 6 -24l4 -23q0 -12 1 -23.5t1 -24.5v-16q0 -8 -2 -16q-10 -125 -100.5 -231.5t-257.5 -127.5q2 10 3 19.5t3 17.5q92 59 137 118.5t59 117.5q-8 -2 -16 -3t-19 -1q-74 0 -128 55t-54 133zM440 1321 q0 80 54.5 135t128.5 55t119.5 -47t60.5 -114q4 -12 6 -24l4 -23q0 -12 1 -23.5t1 -24.5v-16q0 -8 -2 -16q-10 -125 -100 -231.5t-258 -127.5q2 10 3 19.5t3 17.5q92 59 137 118.5t59 117.5q-8 -2 -16 -3t-18 -1q-74 0 -128.5 55t-54.5 133z" />
<glyph unicode="&#x201e;" horiz-adv-x="843" d="M51 174q0 80 54.5 135.5t127.5 55.5q74 0 120 -47.5t61 -114.5q4 -12 6 -24l4 -23q0 -12 1 -23.5t1 -23.5v-17q0 -8 -2 -16q-10 -123 -100.5 -229.5t-257.5 -127.5q2 8 3 17.5t3 19.5q92 59 137 117.5t59 118.5q-8 -2 -16 -3t-19 -1q-74 0 -128 54t-54 132zM440 174 q0 80 54.5 135.5t128.5 55.5t119.5 -47.5t60.5 -114.5q4 -12 6 -24l4 -23q0 -12 1 -23.5t1 -23.5v-17q0 -8 -2 -16q-10 -123 -100 -229.5t-258 -127.5q2 8 3 17.5t3 19.5q92 59 137 117.5t59 118.5q-8 -2 -16 -3t-18 -1q-74 0 -128.5 54t-54.5 132z" />
<glyph unicode="&#x2022;" horiz-adv-x="843" d="M37 688q0 160 112.5 274.5t272.5 114.5t274.5 -114.5t114.5 -274.5t-114.5 -272.5t-274.5 -112.5t-272.5 112.5t-112.5 272.5z" />
<glyph unicode="&#x2026;" horiz-adv-x="1335" d="M82 170q0 80 56.5 137.5t135.5 57.5q80 0 137.5 -57.5t57.5 -137.5t-57.5 -135t-137.5 -55t-136 55t-56 135zM492 170q0 80 56 137.5t136 57.5t137.5 -57.5t57.5 -137.5t-57.5 -135t-137.5 -55t-136 55t-56 135zM901 170q0 80 56.5 137.5t136.5 57.5t137 -57.5t57 -137.5 t-57 -135t-137 -55t-136.5 55t-56.5 135z" />
<glyph unicode="&#x202f;" horiz-adv-x="378" />
<glyph unicode="&#x2039;" horiz-adv-x="737" d="M6 739l375 377h348l-377 -377l377 -377h-348z" />
<glyph unicode="&#x203a;" horiz-adv-x="737" d="M4 362l377 377l-377 377h348l375 -377l-375 -377h-348z" />
<glyph unicode="&#x205f;" horiz-adv-x="475" />
<glyph unicode="&#x2122;" horiz-adv-x="1593" d="M0 1098l12 268h566l12 -268l-127 172h-84v-330l125 -127h-418l125 127v330h-82zM602 813l121 127v297l-121 129h53h117h119h53l68 -252l65 252h371l-119 -129v-297l119 -127h-399l112 127v365l-129 -492h-88l-125 465v-338l115 -127h-332z" />
<glyph unicode="&#xe000;" horiz-adv-x="980" d="M0 980h980v-980h-980v980z" />
<glyph unicode="&#xfb01;" horiz-adv-x="2048" d="M1124 979h666v-733l245 -246h-880l252 246v459zM1382 1233q0 84 59.5 142.5t141.5 58.5q84 0 142 -58.5t58 -142.5q0 -82 -58 -141.5t-142 -59.5q-82 0 -141.5 59.5t-59.5 141.5zM-12 0l299 252v530h-246l51 197h193v135q0 133 127 226.5t301 93.5q188 0 277 -64.5 t104 -142.5q0 -8 1 -15.5t1 -15.5q0 -63 -50 -107q-48 -42 -133 -43q-4 0 -8 1q-25 0 -51.5 3t-54.5 11h-2q6 16 10 32.5t4 36.5q0 51 -22.5 86t-53.5 35t-53.5 -34.5t-22.5 -86.5v-151h277l-51 -197h-226v-530l302 -252h-973z" />
<glyph unicode="&#xfb02;" horiz-adv-x="2043" d="M1120 1413h655v-1167l256 -246h-891l252 246v923zM-12 0l299 252v530h-246l51 197h193v135q0 133 127 226.5t301 93.5q188 0 277 -64.5t104 -142.5q0 -8 1 -15.5t1 -15.5q0 -63 -50 -107q-48 -42 -133 -43q-4 0 -8 1q-25 0 -51.5 3t-54.5 11h-2q6 16 10 32.5t4 36.5 q0 51 -22.5 86t-53.5 35t-53.5 -34.5t-22.5 -86.5v-151h277l-51 -197h-226v-530l302 -252h-973z" />
<glyph unicode="&#xfb03;" horiz-adv-x="3176" d="M2253 979h666v-733l245 -246h-880l252 246v459zM2511 1233q0 84 59.5 142.5t141.5 58.5q84 0 142 -58.5t58 -142.5q0 -82 -58 -141.5t-142 -59.5q-82 0 -141.5 59.5t-59.5 141.5zM1116 0l299 252v530h-246l51 197h193v135q0 133 127 226.5t301 93.5q188 0 277 -64.5 t104 -142.5q0 -8 1 -15.5t1 -15.5q0 -63 -50 -107q-48 -42 -133 -43q-4 0 -8 1q-25 0 -51.5 3t-54.5 11h-2q6 16 10 32.5t4 36.5q0 51 -22.5 86t-53.5 35t-53.5 -34.5t-22.5 -86.5v-151h277l-51 -197h-226v-530l302 -252h-973zM-12 0l299 252v530h-246l51 197h193v135 q0 133 127 226.5t301 93.5q188 0 277 -64.5t104 -142.5q0 -8 1 -15.5t1 -15.5q0 -63 -50 -107q-48 -42 -133 -43q-4 0 -8 1q-25 0 -51.5 3t-54.5 11h-2q6 16 10 32.5t4 36.5q0 51 -22.5 86t-53.5 35t-53.5 -34.5t-22.5 -86.5v-151h277l-51 -197h-226v-530l302 -252h-973z " />
<glyph unicode="&#xfb04;" horiz-adv-x="3172" d="M2249 1413h655v-1167l256 -246h-891l252 246v923zM1116 0l299 252v530h-246l51 197h193v135q0 133 127 226.5t301 93.5q188 0 277 -64.5t104 -142.5q0 -8 1 -15.5t1 -15.5q0 -63 -50 -107q-48 -42 -133 -43q-4 0 -8 1q-25 0 -51.5 3t-54.5 11h-2q6 16 10 32.5t4 36.5 q0 51 -22.5 86t-53.5 35t-53.5 -34.5t-22.5 -86.5v-151h277l-51 -197h-226v-530l302 -252h-973zM-12 0l299 252v530h-246l51 197h193v135q0 133 127 226.5t301 93.5q188 0 277 -64.5t104 -142.5q0 -8 1 -15.5t1 -15.5q0 -63 -50 -107q-48 -42 -133 -43q-4 0 -8 1 q-25 0 -51.5 3t-54.5 11h-2q6 16 10 32.5t4 36.5q0 51 -22.5 86t-53.5 35t-53.5 -34.5t-22.5 -86.5v-151h277l-51 -197h-226v-530l302 -252h-973z" />
</font>
</defs>
</svg>
